<svg width="24" height="24" viewBox="0 0 24 24" fill="none" xmlns="http://www.w3.org/2000/svg">
<g clip-path="url(#clip0_931_175)">
<path fill-rule="evenodd" clip-rule="evenodd" d="M10.9286 0H4.28571C3.14907 0 2.05898 0.451529 1.25526 1.25526C0.451529 2.05898 0 3.14907 0 4.28571L0 10.9286H10.9286V0ZM0 19.7143V13.0714H10.9286V24H4.28571C3.14907 24 2.05898 23.5485 1.25526 22.7447C0.451529 21.941 0 20.8509 0 19.7143ZM13.0714 24V13.0714H24V19.7143C24 20.8509 23.5485 21.941 22.7447 22.7447C21.941 23.5485 20.8509 24 19.7143 24H13.0714ZM24 4.28571V10.9286H13.0714V0H19.7143C20.8509 0 21.941 0.451529 22.7447 1.25526C23.5485 2.05898 24 3.14907 24 4.28571ZM3.48514 4.67143C3.20098 4.67143 2.92846 4.78431 2.72753 4.98524C2.5266 5.18617 2.41371 5.4587 2.41371 5.74286C2.41371 6.02702 2.5266 6.29954 2.72753 6.50047C2.92846 6.7014 3.20098 6.81429 3.48514 6.81429H4.55657V7.88571C4.55657 8.16987 4.66945 8.4424 4.87039 8.64333C5.07132 8.84426 5.34384 8.95714 5.628 8.95714C5.91216 8.95714 6.18468 8.84426 6.38561 8.64333C6.58655 8.4424 6.69943 8.16987 6.69943 7.88571V6.81429H7.77086C8.05502 6.81429 8.32754 6.7014 8.52847 6.50047C8.7294 6.29954 8.84229 6.02702 8.84229 5.74286C8.84229 5.4587 8.7294 5.18617 8.52847 4.98524C8.32754 4.78431 8.05502 4.67143 7.77086 4.67143H6.69943V3.6C6.69943 3.31584 6.58655 3.04332 6.38561 2.84239C6.18468 2.64145 5.91216 2.52857 5.628 2.52857C5.34384 2.52857 5.07132 2.64145 4.87039 2.84239C4.66945 3.04332 4.55657 3.31584 4.55657 3.6V4.67143H3.48514ZM15.4714 5.74286C15.4714 5.14971 15.9514 4.67143 16.5429 4.67143H19.9714C20.2556 4.67143 20.5281 4.78431 20.729 4.98524C20.93 5.18617 21.0429 5.4587 21.0429 5.74286C21.0429 6.02702 20.93 6.29954 20.729 6.50047C20.5281 6.7014 20.2556 6.81429 19.9714 6.81429H16.5429C16.2587 6.81429 15.9862 6.7014 15.7852 6.50047C15.5843 6.29954 15.4714 6.02702 15.4714 5.74286ZM16.5429 15.4834C16.2587 15.4834 15.9862 15.5963 15.7852 15.7972C15.5843 15.9982 15.4714 16.2707 15.4714 16.5549C15.4714 16.839 15.5843 17.1115 15.7852 17.3125C15.9862 17.5134 16.2587 17.6263 16.5429 17.6263H19.9714C20.2556 17.6263 20.5281 17.5134 20.729 17.3125C20.93 17.1115 21.0429 16.839 21.0429 16.5549C21.0429 16.2707 20.93 15.9982 20.729 15.7972C20.5281 15.5963 20.2556 15.4834 19.9714 15.4834H16.5429ZM15.4714 19.9834C15.4714 19.392 15.9514 18.912 16.5429 18.912H19.9714C20.2556 18.912 20.5281 19.0249 20.729 19.2258C20.93 19.4267 21.0429 19.6993 21.0429 19.9834C21.0429 20.2676 20.93 20.5401 20.729 20.741C20.5281 20.942 20.2556 21.0549 19.9714 21.0549H16.5429C16.4022 21.0549 16.2628 21.0271 16.1328 20.9733C16.0028 20.9195 15.8847 20.8405 15.7852 20.741C15.6858 20.6416 15.6068 20.5234 15.553 20.3934C15.4991 20.2635 15.4714 20.1241 15.4714 19.9834ZM3.05314 15.7971C3.15264 15.6976 3.27076 15.6187 3.40077 15.5648C3.53078 15.511 3.67013 15.4832 3.81086 15.4832C3.95158 15.4832 4.09093 15.511 4.22094 15.5648C4.35095 15.6187 4.46908 15.6976 4.56857 15.7971L5.628 16.8566L6.68743 15.7971C6.88839 15.5962 7.16094 15.4833 7.44514 15.4833C7.72934 15.4833 8.0019 15.5962 8.20286 15.7971C8.40382 15.9981 8.51671 16.2707 8.51671 16.5549C8.51671 16.8391 8.40382 17.1116 8.20286 17.3126L7.14343 18.372L8.20286 19.4314C8.30236 19.5309 8.38129 19.6491 8.43514 19.7791C8.489 19.9091 8.51671 20.0484 8.51671 20.1891C8.51671 20.3299 8.489 20.4692 8.43514 20.5992C8.38129 20.7292 8.30236 20.8474 8.20286 20.9469C8.10335 21.0464 7.98522 21.1253 7.85521 21.1791C7.72521 21.233 7.58586 21.2607 7.44514 21.2607C7.30442 21.2607 7.16508 21.233 7.03507 21.1791C6.90506 21.1253 6.78693 21.0464 6.68743 20.9469L5.628 19.8874L4.56857 20.9469C4.46907 21.0464 4.35094 21.1253 4.22093 21.1791C4.09092 21.233 3.95158 21.2607 3.81086 21.2607C3.67014 21.2607 3.53079 21.233 3.40079 21.1791C3.27078 21.1253 3.15265 21.0464 3.05314 20.9469C2.95364 20.8474 2.87471 20.7292 2.82086 20.5992C2.767 20.4692 2.73929 20.3299 2.73929 20.1891C2.73929 20.0484 2.767 19.9091 2.82086 19.7791C2.87471 19.6491 2.95364 19.5309 3.05314 19.4314L4.11257 18.372L3.05314 17.3126C2.95362 17.2131 2.87468 17.095 2.82081 16.9649C2.76695 16.8349 2.73923 16.6956 2.73923 16.5549C2.73923 16.4141 2.76695 16.2748 2.82081 16.1448C2.87468 16.0148 2.95362 15.8966 3.05314 15.7971Z" fill="white"/>
</g>
<defs>
<clipPath id="clip0_931_175">
<rect width="24" height="24" fill="white"/>
</clipPath>
</defs>
</svg>
