<svg width="135" height="14" viewBox="0 0 135 14" fill="none" xmlns="http://www.w3.org/2000/svg">
<mask id="path-1-outside-1_130_7" maskUnits="userSpaceOnUse" x="0" y="2" width="134" height="12" fill="black">
<rect fill="white" y="2" width="134" height="12"/>
<path d="M1.81641 6.51758V7.52539C1.81641 9.18359 2.53711 10.1094 3.82031 10.1094C4.89844 10.1094 5.61914 9.44727 5.64258 8.48633H6.82031V8.55078C6.82031 10.0684 5.54883 11.1641 3.81445 11.1641C1.78711 11.1641 0.603516 9.79883 0.603516 7.52539V6.51758C0.603516 4.2207 1.78711 2.83789 3.81445 2.83789C5.55469 2.83789 6.82031 3.97461 6.82031 5.57422V5.63281H5.64258C5.61914 4.60742 4.89844 3.89258 3.82031 3.89258C2.53711 3.89258 1.81641 4.83594 1.81641 6.51758ZM8.15625 11V4.82422H9.33984V5.60938H9.38086C9.54492 5.23438 10.0078 4.73047 10.875 4.73047C11.0273 4.73047 11.168 4.74219 11.291 4.75977V5.82031C11.1797 5.79688 10.9629 5.78516 10.7637 5.78516C9.69727 5.78516 9.35156 6.44141 9.35156 7.27344V11H8.15625ZM14.7715 11.1055C13.1367 11.1055 12.1113 9.99219 12.1113 8.19336V7.54297C12.1113 5.84961 13.0957 4.71875 14.7246 4.71875C16.3594 4.71875 17.3262 5.87891 17.3262 7.60156V8.1875H13.2891V8.31641C13.2891 9.41211 13.8633 10.1504 14.7949 10.1504C15.4746 10.1504 15.9316 9.81055 16.1074 9.25977H17.25C17.0449 10.2676 16.2363 11.1055 14.7715 11.1055ZM13.2891 7.32031H16.1602V7.30273C16.1602 6.38281 15.5918 5.66211 14.7305 5.66211C13.8516 5.66211 13.2891 6.38867 13.2891 7.30273V7.32031ZM22.2012 10.2383C21.9141 10.7188 21.3633 11.0996 20.4492 11.0996C19.2539 11.0996 18.4336 10.3672 18.4336 9.22461C18.4336 8.13477 19.1895 7.44336 20.6074 7.4375H22.1953V6.83398C22.1953 6.08398 21.7617 5.67383 20.9883 5.67383C20.25 5.67383 19.8281 6.05469 19.7754 6.62891H18.6621C18.7207 5.56836 19.4355 4.72461 21.0234 4.72461C22.3711 4.72461 23.373 5.42188 23.373 6.76953V11H22.2422V10.2383H22.2012ZM20.7949 10.168C21.5918 10.168 22.1953 9.66992 22.1953 8.95508V8.25781H20.7715C19.9805 8.25781 19.6289 8.63281 19.6289 9.16602C19.6289 9.8457 20.1914 10.168 20.7949 10.168ZM25.4473 4.82422V3.30078H26.6133V4.82422H27.8262V5.78516H26.6133V9.20703C26.6133 9.91016 26.8652 10.0977 27.5859 10.0977C27.6914 10.0977 27.7852 10.0918 27.8672 10.0859V11.0059C27.7676 11.0234 27.5332 11.0469 27.293 11.0469C25.8047 11.0469 25.4355 10.4961 25.4355 9.26562V5.78516H24.5918V4.82422H25.4473ZM31.623 11.1055C29.9883 11.1055 28.9629 9.99219 28.9629 8.19336V7.54297C28.9629 5.84961 29.9473 4.71875 31.5762 4.71875C33.2109 4.71875 34.1777 5.87891 34.1777 7.60156V8.1875H30.1406V8.31641C30.1406 9.41211 30.7148 10.1504 31.6465 10.1504C32.3262 10.1504 32.7832 9.81055 32.959 9.25977H34.1016C33.8965 10.2676 33.0879 11.1055 31.623 11.1055ZM30.1406 7.32031H33.0117V7.30273C33.0117 6.38281 32.4434 5.66211 31.582 5.66211C30.7031 5.66211 30.1406 6.38867 30.1406 7.30273V7.32031ZM37.8105 4.73047C38.6367 4.73047 39.2812 5.13477 39.5801 5.69727H39.6211V2.58008H40.8047V11H39.6562V10.0625H39.6211C39.293 10.6953 38.6426 11.0879 37.8105 11.0879C36.2344 11.0879 35.3789 9.92773 35.3789 8.18164V7.63672C35.3789 5.92578 36.2812 4.73047 37.8105 4.73047ZM38.0684 5.72656C37.207 5.72656 36.5801 6.37109 36.5801 7.67773V8.14648C36.5801 9.44727 37.207 10.0918 38.0801 10.0918C39.041 10.0918 39.6328 9.40039 39.6328 8.15234V7.67773C39.6328 6.48828 39.0352 5.72656 38.0684 5.72656ZM47.9648 11.0938C47.0859 11.0938 46.4824 10.6953 46.1367 10.0625H46.0957V11H44.9473V2.58008H46.1309V5.68555H46.1719C46.4766 5.13477 47.1797 4.73047 47.9707 4.73047C49.4004 4.73047 50.3906 5.75 50.3906 7.61328V8.19922C50.3906 10.0039 49.4297 11.0938 47.9648 11.0938ZM47.7246 10.0977C48.5918 10.0977 49.1895 9.40625 49.1895 8.14648V7.67773C49.1895 6.41211 48.5859 5.72656 47.7246 5.72656C46.7285 5.72656 46.1191 6.40625 46.1191 7.67773V8.13477C46.1191 9.41211 46.7227 10.0977 47.7246 10.0977ZM56.7305 4.82422C56.7305 4.82422 54.5918 10.9414 54.5859 10.9648L54.4277 11.3926C54.0586 12.3711 53.5781 13.2383 52.1953 13.2383C51.9375 13.2383 51.6504 13.209 51.498 13.1855V12.2656C51.5918 12.2832 51.8203 12.2949 51.9668 12.2949C52.7109 12.2949 52.998 11.9551 53.1504 11.3574L53.2324 11.0645L51 4.82422H52.3125L53.8652 9.79297H53.9062L55.4707 4.82422H56.7305ZM59.291 9.01953H60.4629C60.4863 9.64062 60.8906 10.0801 61.6465 10.0801C62.4961 10.0801 62.8887 9.57031 62.8887 8.54492V3.00195H64.1016V8.55664C64.1016 10.2441 63.2051 11.1641 61.6523 11.1641C60.1758 11.1641 59.291 10.2383 59.291 9.01953ZM68.2559 11.1055C66.6211 11.1055 65.5957 9.99219 65.5957 8.19336V7.54297C65.5957 5.84961 66.5801 4.71875 68.209 4.71875C69.8438 4.71875 70.8105 5.87891 70.8105 7.60156V8.1875H66.7734V8.31641C66.7734 9.41211 67.3477 10.1504 68.2793 10.1504C68.959 10.1504 69.416 9.81055 69.5918 9.25977H70.7344C70.5293 10.2676 69.7207 11.1055 68.2559 11.1055ZM66.7734 7.32031H69.6445V7.30273C69.6445 6.38281 69.0762 5.66211 68.2148 5.66211C67.3359 5.66211 66.7734 6.38867 66.7734 7.30273V7.32031ZM74.7305 12.377C75.6562 12.377 76.248 11.832 76.248 10.9121V9.95703H76.207C75.9668 10.4961 75.2988 10.9355 74.4492 10.9355C73.0195 10.9355 72.0176 9.92188 72.0176 8.05859V7.58984C72.0176 5.75 73.0137 4.73047 74.4492 4.73047C75.293 4.73047 75.9609 5.16992 76.2363 5.70312H76.2773V4.82422H77.4258V10.9473C77.4258 12.5645 76.1191 13.3086 74.7246 13.3086C73.084 13.3086 72.2754 12.5117 72.1523 11.4805H73.3359C73.4473 11.9609 73.9453 12.377 74.7305 12.377ZM74.7539 5.71484C73.7871 5.71484 73.2129 6.41211 73.2129 7.66016V8.0293C73.2129 9.25391 73.7871 9.97461 74.7539 9.97461C75.6914 9.97461 76.248 9.24805 76.248 8.0293V7.66016C76.248 6.45898 75.6621 5.71484 74.7539 5.71484ZM81.627 4.71875C83.3789 4.71875 84.3281 5.9668 84.3281 7.63672V8.1582C84.3281 9.875 83.3848 11.1055 81.627 11.1055C79.8633 11.1055 78.9082 9.875 78.9082 8.1582V7.64258C78.9082 5.97266 79.8633 4.71875 81.627 4.71875ZM81.6211 5.69141C80.6191 5.69141 80.0977 6.48828 80.0977 7.66602V8.14062C80.0977 9.30664 80.6191 10.1211 81.6211 10.1211C82.6289 10.1211 83.1387 9.3125 83.1387 8.14062V7.66602C83.1387 6.48242 82.623 5.69141 81.6211 5.69141ZM85.793 11V4.82422H86.9766V5.60938H87.0176C87.1816 5.23438 87.6445 4.73047 88.5117 4.73047C88.6641 4.73047 88.8047 4.74219 88.9277 4.75977V5.82031C88.8164 5.79688 88.5996 5.78516 88.4004 5.78516C87.334 5.78516 86.9883 6.44141 86.9883 7.27344V11H85.793ZM92.4609 11V3.00195H95.5723C96.9492 3.00195 97.8398 3.75781 97.8398 4.9707C97.8398 5.89648 97.3359 6.5 96.5273 6.73438V6.78711C97.5645 6.91602 98.2793 7.60742 98.2793 8.75586C98.2793 10.1621 97.1777 11 95.4902 11H92.4609ZM93.6621 3.99219V6.40625H94.8281C96.0762 6.40625 96.6328 6.00195 96.6328 5.17578C96.6328 4.43164 96.1582 3.99219 95.3379 3.99219H93.6621ZM93.6621 7.36133V10.0098H94.9805C96.4512 10.0098 97.0488 9.61133 97.0488 8.72656C97.0488 7.86523 96.4688 7.36133 95.4492 7.36133H93.6621ZM103.049 10.2383C102.762 10.7188 102.211 11.0996 101.297 11.0996C100.102 11.0996 99.2812 10.3672 99.2812 9.22461C99.2812 8.13477 100.037 7.44336 101.455 7.4375H103.043V6.83398C103.043 6.08398 102.609 5.67383 101.836 5.67383C101.098 5.67383 100.676 6.05469 100.623 6.62891H99.5098C99.5684 5.56836 100.283 4.72461 101.871 4.72461C103.219 4.72461 104.221 5.42188 104.221 6.76953V11H103.09V10.2383H103.049ZM101.643 10.168C102.439 10.168 103.043 9.66992 103.043 8.95508V8.25781H101.619C100.828 8.25781 100.477 8.63281 100.477 9.16602C100.477 9.8457 101.039 10.168 101.643 10.168ZM107.074 8.80859V11H105.891V2.58008H107.074V7.49023H107.127L109.441 4.82422H110.865L108.486 7.50195L111.018 11H109.588L107.602 8.22266L107.074 8.80859ZM116.812 4.82422V11H115.646V10.1621H115.6C115.389 10.6484 114.809 11.0996 113.812 11.0996C112.541 11.0996 111.65 10.3672 111.65 8.9375V4.82422H112.834V8.60938C112.834 9.72266 113.473 10.0566 114.217 10.0566C115.037 10.0566 115.629 9.53516 115.629 8.5918V4.82422H116.812ZM118.523 11V4.82422H119.689V5.66797H119.73C119.947 5.26367 120.516 4.72461 121.529 4.72461C122.795 4.72461 123.715 5.52734 123.715 7.0332V11H122.537V7.25586C122.537 6.24805 121.945 5.76758 121.125 5.76758C120.152 5.76758 119.701 6.45898 119.701 7.28516V11H118.523ZM125.402 11V4.82422H126.586V11H125.402ZM125.273 3.31836C125.273 2.91992 125.596 2.62109 125.994 2.62109C126.393 2.62109 126.715 2.91992 126.715 3.31836C126.715 3.7168 126.393 4.01562 125.994 4.01562C125.596 4.01562 125.273 3.7168 125.273 3.31836ZM128.355 11V4.82422H129.521V5.66797H129.562C129.779 5.26367 130.348 4.72461 131.361 4.72461C132.627 4.72461 133.547 5.52734 133.547 7.0332V11H132.369V7.25586C132.369 6.24805 131.777 5.76758 130.957 5.76758C129.984 5.76758 129.533 6.45898 129.533 7.28516V11H128.355Z"/>
</mask>
<path d="M1.81641 6.51758V7.52539C1.81641 9.18359 2.53711 10.1094 3.82031 10.1094C4.89844 10.1094 5.61914 9.44727 5.64258 8.48633H6.82031V8.55078C6.82031 10.0684 5.54883 11.1641 3.81445 11.1641C1.78711 11.1641 0.603516 9.79883 0.603516 7.52539V6.51758C0.603516 4.2207 1.78711 2.83789 3.81445 2.83789C5.55469 2.83789 6.82031 3.97461 6.82031 5.57422V5.63281H5.64258C5.61914 4.60742 4.89844 3.89258 3.82031 3.89258C2.53711 3.89258 1.81641 4.83594 1.81641 6.51758ZM8.15625 11V4.82422H9.33984V5.60938H9.38086C9.54492 5.23438 10.0078 4.73047 10.875 4.73047C11.0273 4.73047 11.168 4.74219 11.291 4.75977V5.82031C11.1797 5.79688 10.9629 5.78516 10.7637 5.78516C9.69727 5.78516 9.35156 6.44141 9.35156 7.27344V11H8.15625ZM14.7715 11.1055C13.1367 11.1055 12.1113 9.99219 12.1113 8.19336V7.54297C12.1113 5.84961 13.0957 4.71875 14.7246 4.71875C16.3594 4.71875 17.3262 5.87891 17.3262 7.60156V8.1875H13.2891V8.31641C13.2891 9.41211 13.8633 10.1504 14.7949 10.1504C15.4746 10.1504 15.9316 9.81055 16.1074 9.25977H17.25C17.0449 10.2676 16.2363 11.1055 14.7715 11.1055ZM13.2891 7.32031H16.1602V7.30273C16.1602 6.38281 15.5918 5.66211 14.7305 5.66211C13.8516 5.66211 13.2891 6.38867 13.2891 7.30273V7.32031ZM22.2012 10.2383C21.9141 10.7188 21.3633 11.0996 20.4492 11.0996C19.2539 11.0996 18.4336 10.3672 18.4336 9.22461C18.4336 8.13477 19.1895 7.44336 20.6074 7.4375H22.1953V6.83398C22.1953 6.08398 21.7617 5.67383 20.9883 5.67383C20.25 5.67383 19.8281 6.05469 19.7754 6.62891H18.6621C18.7207 5.56836 19.4355 4.72461 21.0234 4.72461C22.3711 4.72461 23.373 5.42188 23.373 6.76953V11H22.2422V10.2383H22.2012ZM20.7949 10.168C21.5918 10.168 22.1953 9.66992 22.1953 8.95508V8.25781H20.7715C19.9805 8.25781 19.6289 8.63281 19.6289 9.16602C19.6289 9.8457 20.1914 10.168 20.7949 10.168ZM25.4473 4.82422V3.30078H26.6133V4.82422H27.8262V5.78516H26.6133V9.20703C26.6133 9.91016 26.8652 10.0977 27.5859 10.0977C27.6914 10.0977 27.7852 10.0918 27.8672 10.0859V11.0059C27.7676 11.0234 27.5332 11.0469 27.293 11.0469C25.8047 11.0469 25.4355 10.4961 25.4355 9.26562V5.78516H24.5918V4.82422H25.4473ZM31.623 11.1055C29.9883 11.1055 28.9629 9.99219 28.9629 8.19336V7.54297C28.9629 5.84961 29.9473 4.71875 31.5762 4.71875C33.2109 4.71875 34.1777 5.87891 34.1777 7.60156V8.1875H30.1406V8.31641C30.1406 9.41211 30.7148 10.1504 31.6465 10.1504C32.3262 10.1504 32.7832 9.81055 32.959 9.25977H34.1016C33.8965 10.2676 33.0879 11.1055 31.623 11.1055ZM30.1406 7.32031H33.0117V7.30273C33.0117 6.38281 32.4434 5.66211 31.582 5.66211C30.7031 5.66211 30.1406 6.38867 30.1406 7.30273V7.32031ZM37.8105 4.73047C38.6367 4.73047 39.2812 5.13477 39.5801 5.69727H39.6211V2.58008H40.8047V11H39.6562V10.0625H39.6211C39.293 10.6953 38.6426 11.0879 37.8105 11.0879C36.2344 11.0879 35.3789 9.92773 35.3789 8.18164V7.63672C35.3789 5.92578 36.2812 4.73047 37.8105 4.73047ZM38.0684 5.72656C37.207 5.72656 36.5801 6.37109 36.5801 7.67773V8.14648C36.5801 9.44727 37.207 10.0918 38.0801 10.0918C39.041 10.0918 39.6328 9.40039 39.6328 8.15234V7.67773C39.6328 6.48828 39.0352 5.72656 38.0684 5.72656ZM47.9648 11.0938C47.0859 11.0938 46.4824 10.6953 46.1367 10.0625H46.0957V11H44.9473V2.58008H46.1309V5.68555H46.1719C46.4766 5.13477 47.1797 4.73047 47.9707 4.73047C49.4004 4.73047 50.3906 5.75 50.3906 7.61328V8.19922C50.3906 10.0039 49.4297 11.0938 47.9648 11.0938ZM47.7246 10.0977C48.5918 10.0977 49.1895 9.40625 49.1895 8.14648V7.67773C49.1895 6.41211 48.5859 5.72656 47.7246 5.72656C46.7285 5.72656 46.1191 6.40625 46.1191 7.67773V8.13477C46.1191 9.41211 46.7227 10.0977 47.7246 10.0977ZM56.7305 4.82422C56.7305 4.82422 54.5918 10.9414 54.5859 10.9648L54.4277 11.3926C54.0586 12.3711 53.5781 13.2383 52.1953 13.2383C51.9375 13.2383 51.6504 13.209 51.498 13.1855V12.2656C51.5918 12.2832 51.8203 12.2949 51.9668 12.2949C52.7109 12.2949 52.998 11.9551 53.1504 11.3574L53.2324 11.0645L51 4.82422H52.3125L53.8652 9.79297H53.9062L55.4707 4.82422H56.7305ZM59.291 9.01953H60.4629C60.4863 9.64062 60.8906 10.0801 61.6465 10.0801C62.4961 10.0801 62.8887 9.57031 62.8887 8.54492V3.00195H64.1016V8.55664C64.1016 10.2441 63.2051 11.1641 61.6523 11.1641C60.1758 11.1641 59.291 10.2383 59.291 9.01953ZM68.2559 11.1055C66.6211 11.1055 65.5957 9.99219 65.5957 8.19336V7.54297C65.5957 5.84961 66.5801 4.71875 68.209 4.71875C69.8438 4.71875 70.8105 5.87891 70.8105 7.60156V8.1875H66.7734V8.31641C66.7734 9.41211 67.3477 10.1504 68.2793 10.1504C68.959 10.1504 69.416 9.81055 69.5918 9.25977H70.7344C70.5293 10.2676 69.7207 11.1055 68.2559 11.1055ZM66.7734 7.32031H69.6445V7.30273C69.6445 6.38281 69.0762 5.66211 68.2148 5.66211C67.3359 5.66211 66.7734 6.38867 66.7734 7.30273V7.32031ZM74.7305 12.377C75.6562 12.377 76.248 11.832 76.248 10.9121V9.95703H76.207C75.9668 10.4961 75.2988 10.9355 74.4492 10.9355C73.0195 10.9355 72.0176 9.92188 72.0176 8.05859V7.58984C72.0176 5.75 73.0137 4.73047 74.4492 4.73047C75.293 4.73047 75.9609 5.16992 76.2363 5.70312H76.2773V4.82422H77.4258V10.9473C77.4258 12.5645 76.1191 13.3086 74.7246 13.3086C73.084 13.3086 72.2754 12.5117 72.1523 11.4805H73.3359C73.4473 11.9609 73.9453 12.377 74.7305 12.377ZM74.7539 5.71484C73.7871 5.71484 73.2129 6.41211 73.2129 7.66016V8.0293C73.2129 9.25391 73.7871 9.97461 74.7539 9.97461C75.6914 9.97461 76.248 9.24805 76.248 8.0293V7.66016C76.248 6.45898 75.6621 5.71484 74.7539 5.71484ZM81.627 4.71875C83.3789 4.71875 84.3281 5.9668 84.3281 7.63672V8.1582C84.3281 9.875 83.3848 11.1055 81.627 11.1055C79.8633 11.1055 78.9082 9.875 78.9082 8.1582V7.64258C78.9082 5.97266 79.8633 4.71875 81.627 4.71875ZM81.6211 5.69141C80.6191 5.69141 80.0977 6.48828 80.0977 7.66602V8.14062C80.0977 9.30664 80.6191 10.1211 81.6211 10.1211C82.6289 10.1211 83.1387 9.3125 83.1387 8.14062V7.66602C83.1387 6.48242 82.623 5.69141 81.6211 5.69141ZM85.793 11V4.82422H86.9766V5.60938H87.0176C87.1816 5.23438 87.6445 4.73047 88.5117 4.73047C88.6641 4.73047 88.8047 4.74219 88.9277 4.75977V5.82031C88.8164 5.79688 88.5996 5.78516 88.4004 5.78516C87.334 5.78516 86.9883 6.44141 86.9883 7.27344V11H85.793ZM92.4609 11V3.00195H95.5723C96.9492 3.00195 97.8398 3.75781 97.8398 4.9707C97.8398 5.89648 97.3359 6.5 96.5273 6.73438V6.78711C97.5645 6.91602 98.2793 7.60742 98.2793 8.75586C98.2793 10.1621 97.1777 11 95.4902 11H92.4609ZM93.6621 3.99219V6.40625H94.8281C96.0762 6.40625 96.6328 6.00195 96.6328 5.17578C96.6328 4.43164 96.1582 3.99219 95.3379 3.99219H93.6621ZM93.6621 7.36133V10.0098H94.9805C96.4512 10.0098 97.0488 9.61133 97.0488 8.72656C97.0488 7.86523 96.4688 7.36133 95.4492 7.36133H93.6621ZM103.049 10.2383C102.762 10.7188 102.211 11.0996 101.297 11.0996C100.102 11.0996 99.2812 10.3672 99.2812 9.22461C99.2812 8.13477 100.037 7.44336 101.455 7.4375H103.043V6.83398C103.043 6.08398 102.609 5.67383 101.836 5.67383C101.098 5.67383 100.676 6.05469 100.623 6.62891H99.5098C99.5684 5.56836 100.283 4.72461 101.871 4.72461C103.219 4.72461 104.221 5.42188 104.221 6.76953V11H103.09V10.2383H103.049ZM101.643 10.168C102.439 10.168 103.043 9.66992 103.043 8.95508V8.25781H101.619C100.828 8.25781 100.477 8.63281 100.477 9.16602C100.477 9.8457 101.039 10.168 101.643 10.168ZM107.074 8.80859V11H105.891V2.58008H107.074V7.49023H107.127L109.441 4.82422H110.865L108.486 7.50195L111.018 11H109.588L107.602 8.22266L107.074 8.80859ZM116.812 4.82422V11H115.646V10.1621H115.6C115.389 10.6484 114.809 11.0996 113.812 11.0996C112.541 11.0996 111.65 10.3672 111.65 8.9375V4.82422H112.834V8.60938C112.834 9.72266 113.473 10.0566 114.217 10.0566C115.037 10.0566 115.629 9.53516 115.629 8.5918V4.82422H116.812ZM118.523 11V4.82422H119.689V5.66797H119.73C119.947 5.26367 120.516 4.72461 121.529 4.72461C122.795 4.72461 123.715 5.52734 123.715 7.0332V11H122.537V7.25586C122.537 6.24805 121.945 5.76758 121.125 5.76758C120.152 5.76758 119.701 6.45898 119.701 7.28516V11H118.523ZM125.402 11V4.82422H126.586V11H125.402ZM125.273 3.31836C125.273 2.91992 125.596 2.62109 125.994 2.62109C126.393 2.62109 126.715 2.91992 126.715 3.31836C126.715 3.7168 126.393 4.01562 125.994 4.01562C125.596 4.01562 125.273 3.7168 125.273 3.31836ZM128.355 11V4.82422H129.521V5.66797H129.562C129.779 5.26367 130.348 4.72461 131.361 4.72461C132.627 4.72461 133.547 5.52734 133.547 7.0332V11H132.369V7.25586C132.369 6.24805 131.777 5.76758 130.957 5.76758C129.984 5.76758 129.533 6.45898 129.533 7.28516V11H128.355Z" fill="black"/>
<path d="M5.64258 8.48633V8.08633H5.25222L5.2427 8.47657L5.64258 8.48633ZM6.82031 8.48633H7.22031V8.08633H6.82031V8.48633ZM6.82031 5.63281V6.03281H7.22031V5.63281H6.82031ZM5.64258 5.63281L5.24268 5.64195L5.25162 6.03281H5.64258V5.63281ZM1.41641 6.51758V7.52539H2.21641V6.51758H1.41641ZM1.41641 7.52539C1.41641 8.4047 1.60644 9.15023 2.02119 9.68449C2.44772 10.2339 3.07276 10.5094 3.82031 10.5094V9.70937C3.28466 9.70937 2.90774 9.52192 2.65313 9.19392C2.38672 8.85075 2.21641 8.30429 2.21641 7.52539H1.41641ZM3.82031 10.5094C4.4413 10.5094 4.99142 10.3178 5.39431 9.95573C5.79965 9.59148 6.02824 9.07891 6.04246 8.49608L5.2427 8.47657C5.23347 8.85468 5.09 9.15363 4.85959 9.36068C4.62674 9.56993 4.27745 9.70937 3.82031 9.70937V10.5094ZM5.64258 8.88633H6.82031V8.08633H5.64258V8.88633ZM6.42031 8.48633V8.55078H7.22031V8.48633H6.42031ZM6.42031 8.55078C6.42031 9.79581 5.38336 10.7641 3.81445 10.7641V11.5641C5.7143 11.5641 7.22031 10.3409 7.22031 8.55078H6.42031ZM3.81445 10.7641C2.89552 10.7641 2.21018 10.4581 1.74928 9.93332C1.28223 9.4015 1.00352 8.59656 1.00352 7.52539H0.203516C0.203516 8.72766 0.516602 9.74206 1.14818 10.4612C1.78591 11.1874 2.70605 11.5641 3.81445 11.5641V10.7641ZM1.00352 7.52539V6.51758H0.203516V7.52539H1.00352ZM1.00352 6.51758C1.00352 5.43373 1.28274 4.61782 1.7508 4.07862C2.21225 3.54703 2.89721 3.23789 3.81445 3.23789V2.43789C2.70435 2.43789 1.78384 2.82016 1.14666 3.55419C0.516089 4.28062 0.203516 5.30455 0.203516 6.51758H1.00352ZM3.81445 3.23789C5.37153 3.23789 6.42031 4.23148 6.42031 5.57422H7.22031C7.22031 3.71774 5.73785 2.43789 3.81445 2.43789V3.23789ZM6.42031 5.57422V5.63281H7.22031V5.57422H6.42031ZM6.82031 5.23281H5.64258V6.03281H6.82031V5.23281ZM6.04247 5.62367C6.02861 5.01705 5.80628 4.47802 5.40478 4.0904C5.00336 3.70286 4.44984 3.49258 3.82031 3.49258V4.29258C4.26891 4.29258 4.6148 4.43972 4.84913 4.66595C5.08337 4.8921 5.23311 5.22318 5.24268 5.64195L6.04247 5.62367ZM3.82031 3.49258C3.06997 3.49258 2.44466 3.77454 2.01924 4.33172C1.60601 4.87291 1.41641 5.62756 1.41641 6.51758H2.21641C2.21641 5.72596 2.38716 5.1681 2.65508 4.81721C2.9108 4.48229 3.28746 4.29258 3.82031 4.29258V3.49258ZM8.15625 11H7.75625V11.4H8.15625V11ZM8.15625 4.82422V4.42422H7.75625V4.82422H8.15625ZM9.33984 4.82422H9.73984V4.42422H9.33984V4.82422ZM9.33984 5.60938H8.93984V6.00938H9.33984V5.60938ZM9.38086 5.60938V6.00938H9.64247L9.74732 5.7697L9.38086 5.60938ZM11.291 4.75977H11.691V4.41285L11.3476 4.36379L11.291 4.75977ZM11.291 5.82031L11.2086 6.21173L11.691 6.31329V5.82031H11.291ZM9.35156 11V11.4H9.75156V11H9.35156ZM8.55625 11V4.82422H7.75625V11H8.55625ZM8.15625 5.22422H9.33984V4.42422H8.15625V5.22422ZM8.93984 4.82422V5.60938H9.73984V4.82422H8.93984ZM9.33984 6.00938H9.38086V5.20937H9.33984V6.00938ZM9.74732 5.7697C9.85712 5.51874 10.189 5.13047 10.875 5.13047V4.33047C9.82662 4.33047 9.23273 4.95001 9.0144 5.44905L9.74732 5.7697ZM10.875 5.13047C11.0071 5.13047 11.1287 5.14064 11.2344 5.15575L11.3476 4.36379C11.2072 4.34373 11.0476 4.33047 10.875 4.33047V5.13047ZM10.891 4.75977V5.82031H11.691V4.75977H10.891ZM11.3734 5.42889C11.2178 5.39612 10.9644 5.38516 10.7637 5.38516V6.18516C10.9614 6.18516 11.1416 6.19763 11.2086 6.21173L11.3734 5.42889ZM10.7637 5.38516C10.1444 5.38516 9.66315 5.57967 9.34836 5.96371C9.04592 6.33269 8.95156 6.8119 8.95156 7.27344H9.75156C9.75156 6.90294 9.83006 6.63802 9.96707 6.47086C10.0917 6.31877 10.3165 6.18516 10.7637 6.18516V5.38516ZM8.95156 7.27344V11H9.75156V7.27344H8.95156ZM9.35156 10.6H8.15625V11.4H9.35156V10.6ZM17.3262 8.1875V8.5875H17.7262V8.1875H17.3262ZM13.2891 8.1875V7.7875H12.8891V8.1875H13.2891ZM16.1074 9.25977V8.85977H15.8152L15.7264 9.13815L16.1074 9.25977ZM17.25 9.25977L17.642 9.33953L17.7396 8.85977H17.25V9.25977ZM13.2891 7.32031H12.8891V7.72031H13.2891V7.32031ZM16.1602 7.32031V7.72031H16.5602V7.32031H16.1602ZM14.7715 10.7055C14.049 10.7055 13.4974 10.4623 13.1234 10.0539C12.7457 9.64138 12.5113 9.01841 12.5113 8.19336H11.7113C11.7113 9.16714 11.9896 10.0002 12.5333 10.5941C13.0808 11.192 13.8592 11.5055 14.7715 11.5055V10.7055ZM12.5113 8.19336V7.54297H11.7113V8.19336H12.5113ZM12.5113 7.54297C12.5113 6.77215 12.7347 6.16993 13.103 5.76501C13.4673 5.36457 14.0076 5.11875 14.7246 5.11875V4.31875C13.8127 4.31875 13.0464 4.63836 12.5112 5.22669C11.9801 5.81054 11.7113 6.62043 11.7113 7.54297H12.5113ZM14.7246 5.11875C15.4413 5.11875 15.9772 5.36951 16.3385 5.77885C16.7051 6.19421 16.9262 6.81249 16.9262 7.60156H17.7262C17.7262 6.66798 17.4638 5.84485 16.9383 5.24947C16.4075 4.64807 15.6427 4.31875 14.7246 4.31875V5.11875ZM16.9262 7.60156V8.1875H17.7262V7.60156H16.9262ZM17.3262 7.7875H13.2891V8.5875H17.3262V7.7875ZM12.8891 8.1875V8.31641H13.6891V8.1875H12.8891ZM12.8891 8.31641C12.8891 8.93014 13.0497 9.4854 13.3816 9.8958C13.7207 10.3151 14.2134 10.5504 14.7949 10.5504V9.75039C14.4448 9.75039 14.1846 9.61654 14.0037 9.39277C13.8155 9.16011 13.6891 8.79838 13.6891 8.31641H12.8891ZM14.7949 10.5504C15.2021 10.5504 15.5694 10.448 15.8685 10.24C16.1688 10.0312 16.3765 9.7323 16.4885 9.38138L15.7264 9.13815C15.6626 9.33801 15.5538 9.48443 15.4118 9.58321C15.2685 9.68286 15.0674 9.75039 14.7949 9.75039V10.5504ZM16.1074 9.65977H17.25V8.85977H16.1074V9.65977ZM16.858 9.18C16.7717 9.60408 16.5616 9.98011 16.2302 10.2507C15.9004 10.5199 15.425 10.7055 14.7715 10.7055V11.5055C15.5828 11.5055 16.2441 11.2721 16.7361 10.8704C17.2265 10.4701 17.5232 9.92326 17.642 9.33953L16.858 9.18ZM13.2891 7.72031H16.1602V6.92031H13.2891V7.72031ZM16.5602 7.32031V7.30273H15.7602V7.32031H16.5602ZM16.5602 7.30273C16.5602 6.22714 15.8727 5.26211 14.7305 5.26211V6.06211C15.3109 6.06211 15.7602 6.53848 15.7602 7.30273H16.5602ZM14.7305 5.26211C13.5708 5.26211 12.8891 6.23282 12.8891 7.30273H13.6891C13.6891 6.54452 14.1324 6.06211 14.7305 6.06211V5.26211ZM12.8891 7.30273V7.32031H13.6891V7.30273H12.8891ZM22.2012 10.2383V9.83828H21.9742L21.8578 10.0331L22.2012 10.2383ZM20.6074 7.4375L20.6074 7.0375L20.6058 7.0375L20.6074 7.4375ZM22.1953 7.4375V7.8375H22.5953V7.4375H22.1953ZM19.7754 6.62891V7.02891H20.1403L20.1737 6.66549L19.7754 6.62891ZM18.6621 6.62891L18.2627 6.60684L18.2394 7.02891H18.6621V6.62891ZM23.373 11V11.4H23.773V11H23.373ZM22.2422 11H21.8422V11.4H22.2422V11ZM22.2422 10.2383H22.6422V9.83828H22.2422V10.2383ZM22.1953 8.25781H22.5953V7.85781H22.1953V8.25781ZM21.8578 10.0331C21.6495 10.3817 21.2359 10.6996 20.4492 10.6996V11.4996C21.4907 11.4996 22.1786 11.0558 22.5445 10.4435L21.8578 10.0331ZM20.4492 10.6996C19.9326 10.6996 19.5315 10.5422 19.2639 10.2961C18.9997 10.0532 18.8336 9.69517 18.8336 9.22461H18.0336C18.0336 9.89663 18.2777 10.4761 18.7224 10.885C19.1638 11.2908 19.7705 11.4996 20.4492 11.4996V10.6996ZM18.8336 9.22461C18.8336 8.77834 18.9843 8.45227 19.2471 8.22994C19.5191 7.99988 19.9597 7.84018 20.6091 7.8375L20.6058 7.0375C19.8372 7.04068 19.1909 7.22961 18.7304 7.61918C18.2608 8.01648 18.0336 8.58103 18.0336 9.22461H18.8336ZM20.6074 7.8375H22.1953V7.0375H20.6074V7.8375ZM22.5953 7.4375V6.83398H21.7953V7.4375H22.5953ZM22.5953 6.83398C22.5953 6.38212 22.4629 5.97516 22.1584 5.68369C21.8566 5.39484 21.4425 5.27383 20.9883 5.27383V6.07383C21.3075 6.07383 21.4969 6.15789 21.6053 6.26162C21.7109 6.36273 21.7953 6.53585 21.7953 6.83398H22.5953ZM20.9883 5.27383C20.5521 5.27383 20.1648 5.38674 19.8716 5.6263C19.5742 5.8694 19.412 6.21203 19.3771 6.59233L20.1737 6.66549C20.1915 6.47156 20.2667 6.33665 20.3779 6.24577C20.4934 6.15135 20.6862 6.07383 20.9883 6.07383V5.27383ZM19.7754 6.22891H18.6621V7.02891H19.7754V6.22891ZM19.0615 6.65097C19.0861 6.20559 19.245 5.83711 19.5358 5.57736C19.8282 5.31616 20.2992 5.12461 21.0234 5.12461V4.32461C20.1598 4.32461 19.4795 4.55493 19.0028 4.98075C18.5245 5.40801 18.2967 5.99167 18.2627 6.60684L19.0615 6.65097ZM21.0234 5.12461C21.6332 5.12461 22.122 5.28269 22.4503 5.55128C22.768 5.81122 22.973 6.20441 22.973 6.76953H23.773C23.773 5.987 23.4771 5.35772 22.9569 4.93212C22.4473 4.51516 21.7613 4.32461 21.0234 4.32461V5.12461ZM22.973 6.76953V11H23.773V6.76953H22.973ZM23.373 10.6H22.2422V11.4H23.373V10.6ZM22.6422 11V10.2383H21.8422V11H22.6422ZM22.2422 9.83828H22.2012V10.6383H22.2422V9.83828ZM20.7949 10.568C21.7511 10.568 22.5953 9.9478 22.5953 8.95508H21.7953C21.7953 9.39204 21.4325 9.76797 20.7949 9.76797V10.568ZM22.5953 8.95508V8.25781H21.7953V8.95508H22.5953ZM22.1953 7.85781H20.7715V8.65781H22.1953V7.85781ZM20.7715 7.85781C20.3185 7.85781 19.9267 7.96481 19.643 8.20851C19.3506 8.45961 19.2289 8.80743 19.2289 9.16602H20.0289C20.0289 8.9914 20.083 8.88511 20.1642 8.81541C20.2539 8.73831 20.4335 8.65781 20.7715 8.65781V7.85781ZM19.2289 9.16602C19.2289 9.63059 19.4277 9.99834 19.7423 10.2394C20.0444 10.4708 20.4281 10.568 20.7949 10.568V9.76797C20.5583 9.76797 20.3589 9.70398 20.2289 9.60435C20.1114 9.51435 20.0289 9.38113 20.0289 9.16602H19.2289ZM25.4473 4.82422V5.22422H25.8473V4.82422H25.4473ZM25.4473 3.30078V2.90078H25.0473V3.30078H25.4473ZM26.6133 3.30078H27.0133V2.90078H26.6133V3.30078ZM26.6133 4.82422H26.2133V5.22422H26.6133V4.82422ZM27.8262 4.82422H28.2262V4.42422H27.8262V4.82422ZM27.8262 5.78516V6.18516H28.2262V5.78516H27.8262ZM26.6133 5.78516V5.38516H26.2133V5.78516H26.6133ZM27.8672 10.0859H28.2672V9.65635L27.8387 9.68695L27.8672 10.0859ZM27.8672 11.0059L27.9367 11.3998L28.2672 11.3415V11.0059H27.8672ZM25.4355 5.78516H25.8355V5.38516H25.4355V5.78516ZM24.5918 5.78516H24.1918V6.18516H24.5918V5.78516ZM24.5918 4.82422V4.42422H24.1918V4.82422H24.5918ZM25.8473 4.82422V3.30078H25.0473V4.82422H25.8473ZM25.4473 3.70078H26.6133V2.90078H25.4473V3.70078ZM26.2133 3.30078V4.82422H27.0133V3.30078H26.2133ZM26.6133 5.22422H27.8262V4.42422H26.6133V5.22422ZM27.4262 4.82422V5.78516H28.2262V4.82422H27.4262ZM27.8262 5.38516H26.6133V6.18516H27.8262V5.38516ZM26.2133 5.78516V9.20703H27.0133V5.78516H26.2133ZM26.2133 9.20703C26.2133 9.58414 26.2759 9.96169 26.565 10.2162C26.8387 10.4572 27.2197 10.4977 27.5859 10.4977V9.69766C27.2315 9.69766 27.1261 9.64434 27.0937 9.61579C27.0766 9.60081 27.0133 9.53305 27.0133 9.20703H26.2133ZM27.5859 10.4977C27.7059 10.4977 27.8111 10.491 27.8957 10.4849L27.8387 9.68695C27.7593 9.69263 27.6769 9.69766 27.5859 9.69766V10.4977ZM27.4672 10.0859V11.0059H28.2672V10.0859H27.4672ZM27.7977 10.6119C27.7249 10.6248 27.5143 10.6469 27.293 10.6469V11.4469C27.5521 11.4469 27.8102 11.4221 27.9367 11.3998L27.7977 10.6119ZM27.293 10.6469C26.5778 10.6469 26.2567 10.5103 26.0955 10.3415C25.931 10.1692 25.8355 9.86386 25.8355 9.26562H25.0355C25.0355 9.89786 25.1246 10.4831 25.5168 10.8939C25.9123 11.3081 26.5198 11.4469 27.293 11.4469V10.6469ZM25.8355 9.26562V5.78516H25.0355V9.26562H25.8355ZM25.4355 5.38516H24.5918V6.18516H25.4355V5.38516ZM24.9918 5.78516V4.82422H24.1918V5.78516H24.9918ZM24.5918 5.22422H25.4473V4.42422H24.5918V5.22422ZM34.1777 8.1875V8.5875H34.5777V8.1875H34.1777ZM30.1406 8.1875V7.7875H29.7406V8.1875H30.1406ZM32.959 9.25977V8.85977H32.6668L32.5779 9.13815L32.959 9.25977ZM34.1016 9.25977L34.4935 9.33953L34.5912 8.85977H34.1016V9.25977ZM30.1406 7.32031H29.7406V7.72031H30.1406V7.32031ZM33.0117 7.32031V7.72031H33.4117V7.32031H33.0117ZM31.623 10.7055C30.9006 10.7055 30.3489 10.4623 29.975 10.0539C29.5973 9.64138 29.3629 9.01841 29.3629 8.19336H28.5629C28.5629 9.16714 28.8412 10.0002 29.3849 10.5941C29.9323 11.192 30.7108 11.5055 31.623 11.5055V10.7055ZM29.3629 8.19336V7.54297H28.5629V8.19336H29.3629ZM29.3629 7.54297C29.3629 6.77215 29.5863 6.16993 29.9546 5.76501C30.3188 5.36457 30.8592 5.11875 31.5762 5.11875V4.31875C30.6642 4.31875 29.898 4.63836 29.3628 5.22669C28.8317 5.81054 28.5629 6.62043 28.5629 7.54297H29.3629ZM31.5762 5.11875C32.2929 5.11875 32.8288 5.36951 33.1901 5.77885C33.5567 6.19421 33.7777 6.81249 33.7777 7.60156H34.5777C34.5777 6.66798 34.3154 5.84485 33.7899 5.24947C33.2591 4.64807 32.4943 4.31875 31.5762 4.31875V5.11875ZM33.7777 7.60156V8.1875H34.5777V7.60156H33.7777ZM34.1777 7.7875H30.1406V8.5875H34.1777V7.7875ZM29.7406 8.1875V8.31641H30.5406V8.1875H29.7406ZM29.7406 8.31641C29.7406 8.93014 29.9013 9.4854 30.2332 9.8958C30.5722 10.3151 31.0649 10.5504 31.6465 10.5504V9.75039C31.2964 9.75039 31.0362 9.61654 30.8552 9.39277C30.6671 9.16011 30.5406 8.79838 30.5406 8.31641H29.7406ZM31.6465 10.5504C32.0537 10.5504 32.421 10.448 32.7201 10.24C33.0204 10.0312 33.2281 9.7323 33.34 9.38138L32.5779 9.13815C32.5141 9.33801 32.4054 9.48443 32.2633 9.58321C32.12 9.68286 31.919 9.75039 31.6465 9.75039V10.5504ZM32.959 9.65977H34.1016V8.85977H32.959V9.65977ZM33.7096 9.18C33.6233 9.60408 33.4132 9.98011 33.0818 10.2507C32.752 10.5199 32.2766 10.7055 31.623 10.7055V11.5055C32.4343 11.5055 33.0957 11.2721 33.5877 10.8704C34.078 10.4701 34.3747 9.92326 34.4935 9.33953L33.7096 9.18ZM30.1406 7.72031H33.0117V6.92031H30.1406V7.72031ZM33.4117 7.32031V7.30273H32.6117V7.32031H33.4117ZM33.4117 7.30273C33.4117 6.22714 32.7243 5.26211 31.582 5.26211V6.06211C32.1624 6.06211 32.6117 6.53848 32.6117 7.30273H33.4117ZM31.582 5.26211C30.4223 5.26211 29.7406 6.23282 29.7406 7.30273H30.5406C30.5406 6.54452 30.9839 6.06211 31.582 6.06211V5.26211ZM29.7406 7.30273V7.32031H30.5406V7.30273H29.7406ZM39.5801 5.69727L39.2268 5.88493L39.3396 6.09727H39.5801V5.69727ZM39.6211 5.69727V6.09727H40.0211V5.69727H39.6211ZM39.6211 2.58008V2.18008H39.2211V2.58008H39.6211ZM40.8047 2.58008H41.2047V2.18008H40.8047V2.58008ZM40.8047 11V11.4H41.2047V11H40.8047ZM39.6562 11H39.2562V11.4H39.6562V11ZM39.6562 10.0625H40.0563V9.6625H39.6562V10.0625ZM39.6211 10.0625V9.6625H39.3779L39.266 9.87837L39.6211 10.0625ZM37.8105 5.13047C38.5044 5.13047 39.0045 5.46639 39.2268 5.88493L39.9333 5.5096C39.558 4.80314 38.769 4.33047 37.8105 4.33047V5.13047ZM39.5801 6.09727H39.6211V5.29727H39.5801V6.09727ZM40.0211 5.69727V2.58008H39.2211V5.69727H40.0211ZM39.6211 2.98008H40.8047V2.18008H39.6211V2.98008ZM40.4047 2.58008V11H41.2047V2.58008H40.4047ZM40.8047 10.6H39.6562V11.4H40.8047V10.6ZM40.0563 11V10.0625H39.2562V11H40.0563ZM39.6562 9.6625H39.6211V10.4625H39.6562V9.6625ZM39.266 9.87837C39.0133 10.3658 38.5081 10.6879 37.8105 10.6879V11.4879C38.777 11.4879 39.5727 11.0248 39.9762 10.2466L39.266 9.87837ZM37.8105 10.6879C37.1299 10.6879 36.6417 10.4425 36.3147 10.0381C35.9786 9.62225 35.7789 8.99489 35.7789 8.18164H34.9789C34.9789 9.11449 35.207 9.94025 35.6926 10.541C36.1874 11.1532 36.915 11.4879 37.8105 11.4879V10.6879ZM35.7789 8.18164V7.63672H34.9789V8.18164H35.7789ZM35.7789 7.63672C35.7789 6.84746 35.9872 6.21801 36.3316 5.7943C36.6686 5.37975 37.1601 5.13047 37.8105 5.13047V4.33047C36.9317 4.33047 36.2074 4.67885 35.7108 5.28969C35.2218 5.89136 34.9789 6.71504 34.9789 7.63672H35.7789ZM38.0684 5.32656C37.5302 5.32656 37.0392 5.53231 36.6911 5.95947C36.3507 6.37729 36.1801 6.96538 36.1801 7.67773H36.9801C36.9801 7.08345 37.123 6.69596 37.3113 6.46484C37.492 6.24308 37.7452 6.12656 38.0684 6.12656V5.32656ZM36.1801 7.67773V8.14648H36.9801V7.67773H36.1801ZM36.1801 8.14648C36.1801 8.85623 36.3508 9.44347 36.6936 9.8608C37.0439 10.2873 37.5378 10.4918 38.0801 10.4918V9.6918C37.7493 9.6918 37.4933 9.57401 37.3118 9.35307C37.1228 9.12294 36.9801 8.73752 36.9801 8.14648H36.1801ZM38.0801 10.4918C38.6644 10.4918 39.173 10.2769 39.5268 9.84282C39.8717 9.41973 40.0328 8.83387 40.0328 8.15234H39.2328C39.2328 8.71887 39.098 9.10273 38.9068 9.33736C38.7244 9.56104 38.4567 9.6918 38.0801 9.6918V10.4918ZM40.0328 8.15234V7.67773H39.2328V8.15234H40.0328ZM40.0328 7.67773C40.0328 7.02063 39.868 6.43603 39.5259 6.0068C39.1759 5.56761 38.6672 5.32656 38.0684 5.32656V6.12656C38.4363 6.12656 38.7098 6.26638 38.9003 6.5054C39.0988 6.7544 39.2328 7.14539 39.2328 7.67773H40.0328ZM46.1367 10.0625L46.4878 9.87073L46.374 9.6625H46.1367V10.0625ZM46.0957 10.0625V9.6625H45.6957V10.0625H46.0957ZM46.0957 11V11.4H46.4957V11H46.0957ZM44.9473 11H44.5473V11.4H44.9473V11ZM44.9473 2.58008V2.18008H44.5473V2.58008H44.9473ZM46.1309 2.58008H46.5309V2.18008H46.1309V2.58008ZM46.1309 5.68555H45.7309V6.08555H46.1309V5.68555ZM46.1719 5.68555V6.08555H46.4077L46.5219 5.87917L46.1719 5.68555ZM47.9648 10.6937C47.2298 10.6937 46.7622 10.3731 46.4878 9.87073L45.7857 10.2543C46.2027 11.0176 46.9421 11.4938 47.9648 11.4938V10.6937ZM46.1367 9.6625H46.0957V10.4625H46.1367V9.6625ZM45.6957 10.0625V11H46.4957V10.0625H45.6957ZM46.0957 10.6H44.9473V11.4H46.0957V10.6ZM45.3473 11V2.58008H44.5473V11H45.3473ZM44.9473 2.98008H46.1309V2.18008H44.9473V2.98008ZM45.7309 2.58008V5.68555H46.5309V2.58008H45.7309ZM46.1309 6.08555H46.1719V5.28555H46.1309V6.08555ZM46.5219 5.87917C46.7459 5.47415 47.3029 5.13047 47.9707 5.13047V4.33047C47.0565 4.33047 46.2072 4.79538 45.8219 5.49192L46.5219 5.87917ZM47.9707 5.13047C48.5852 5.13047 49.0747 5.34622 49.4156 5.73635C49.7615 6.13217 49.9906 6.74967 49.9906 7.61328H50.7906C50.7906 6.61361 50.5246 5.7897 50.018 5.20993C49.5064 4.62449 48.7859 4.33047 47.9707 4.33047V5.13047ZM49.9906 7.61328V8.19922H50.7906V7.61328H49.9906ZM49.9906 8.19922C49.9906 9.03372 49.7686 9.65671 49.4223 10.0642C49.0818 10.4648 48.5909 10.6937 47.9648 10.6937V11.4938C48.8036 11.4938 49.5256 11.1778 50.0318 10.5823C50.5322 9.99368 50.7906 9.16941 50.7906 8.19922H49.9906ZM47.7246 10.4977C48.275 10.4977 48.7601 10.273 49.0976 9.84059C49.4267 9.41884 49.5895 8.83443 49.5895 8.14648H48.7895C48.7895 8.71831 48.6534 9.10948 48.4669 9.34837C48.2888 9.5766 48.0415 9.69766 47.7246 9.69766V10.4977ZM49.5895 8.14648V7.67773H48.7895V8.14648H49.5895ZM49.5895 7.67773C49.5895 6.98639 49.425 6.4017 49.0948 5.98066C48.7564 5.54932 48.2715 5.32656 47.7246 5.32656V6.12656C48.039 6.12656 48.2866 6.24658 48.4653 6.47442C48.6521 6.71256 48.7895 7.10345 48.7895 7.67773H49.5895ZM47.7246 5.32656C47.1297 5.32656 46.6078 5.5336 46.2423 5.96773C45.8851 6.39212 45.7191 6.98369 45.7191 7.67773H46.5191C46.5191 7.10029 46.6579 6.71628 46.8543 6.48295C47.0426 6.25937 47.3235 6.12656 47.7246 6.12656V5.32656ZM45.7191 7.67773V8.13477H46.5191V7.67773H45.7191ZM45.7191 8.13477C45.7191 8.83047 45.883 9.42463 46.239 9.85142C46.6037 10.2887 47.1261 10.4977 47.7246 10.4977V9.69766C47.3211 9.69766 47.0409 9.56386 46.8533 9.33901C46.657 9.10369 46.5191 8.7164 46.5191 8.13477H45.7191ZM56.7305 4.82422L57.1081 4.95623L57.2941 4.42422H56.7305V4.82422ZM54.5859 10.9648L54.9611 11.1036L54.9687 11.0831L54.974 11.0619L54.5859 10.9648ZM54.4277 11.3926L54.802 11.5338L54.8029 11.5313L54.4277 11.3926ZM51.498 13.1855H51.098V13.5287L51.4372 13.5809L51.498 13.1855ZM51.498 12.2656L51.5718 11.8725L51.098 11.7837V12.2656H51.498ZM53.1504 11.3574L52.7651 11.2495L52.7628 11.2586L53.1504 11.3574ZM53.2324 11.0645L53.6176 11.1723L53.652 11.0496L53.609 10.9297L53.2324 11.0645ZM51 4.82422V4.42422H50.4321L50.6234 4.95895L51 4.82422ZM52.3125 4.82422L52.6943 4.70491L52.6066 4.42422H52.3125V4.82422ZM53.8652 9.79297L53.4834 9.91228L53.5712 10.193H53.8652V9.79297ZM53.9062 9.79297V10.193H54.1997L54.2878 9.9131L53.9062 9.79297ZM55.4707 4.82422V4.42422H55.1773L55.0892 4.70409L55.4707 4.82422ZM56.7305 4.82422C56.3529 4.69221 56.3529 4.69223 56.3529 4.69228C56.3528 4.69232 56.3528 4.69239 56.3528 4.69249C56.3527 4.69267 56.3526 4.69295 56.3525 4.69332C56.3522 4.69406 56.3518 4.69517 56.3513 4.69664C56.3503 4.69958 56.3488 4.70397 56.3467 4.70976C56.3427 4.72133 56.3367 4.73851 56.3289 4.76092C56.3132 4.80573 56.2902 4.87145 56.261 4.95511C56.2025 5.12243 56.1189 5.36147 56.0186 5.64841C55.818 6.22227 55.5505 6.98766 55.2828 7.75379C55.0151 8.51992 54.7472 9.28682 54.5458 9.86366C54.4452 10.1521 54.3611 10.3931 54.302 10.5627C54.2725 10.6475 54.2491 10.7146 54.2331 10.7609C54.2251 10.7841 54.2187 10.8023 54.2144 10.815C54.2122 10.8213 54.2103 10.8268 54.2089 10.8309C54.2082 10.8329 54.2074 10.8354 54.2066 10.8378C54.2063 10.8389 54.2056 10.841 54.2048 10.8434C54.2044 10.8447 54.2035 10.8477 54.2029 10.8496C54.202 10.8526 54.1995 10.8617 54.1979 10.8678L54.974 11.0619C54.9689 11.0823 54.961 11.1041 54.9666 11.0877C54.9674 11.0853 54.9688 11.0813 54.9708 11.0753C54.9749 11.0635 54.9809 11.0461 54.9889 11.0231C55.0048 10.9773 55.028 10.9105 55.0575 10.8258C55.1165 10.6564 55.2005 10.4157 55.3011 10.1273C55.5024 9.55059 55.7703 8.78379 56.038 8.01769C56.3057 7.2516 56.5732 6.48623 56.7738 5.91239C56.8741 5.62546 56.9577 5.38642 57.0162 5.21911C57.0454 5.13546 57.0684 5.06974 57.084 5.02493C57.0919 5.00253 57.0979 4.98535 57.1019 4.97378C57.1039 4.96799 57.1055 4.9636 57.1065 4.96066C57.107 4.95919 57.1074 4.95808 57.1077 4.95734C57.1078 4.95697 57.1079 4.95669 57.108 4.95651C57.108 4.95642 57.108 4.95635 57.108 4.9563C57.108 4.95625 57.1081 4.95623 56.7305 4.82422ZM54.2108 10.8261L54.0526 11.2538L54.8029 11.5313L54.9611 11.1036L54.2108 10.8261ZM54.0535 11.2514C53.8716 11.7335 53.6834 12.1249 53.4088 12.3995C53.1517 12.6566 52.791 12.8383 52.1953 12.8383V13.6383C52.9825 13.6383 53.5534 13.3864 53.9745 12.9652C54.3781 12.5616 54.6147 12.0301 54.802 11.5338L54.0535 11.2514ZM52.1953 12.8383C51.9613 12.8383 51.6949 12.8111 51.5589 12.7902L51.4372 13.5809C51.6059 13.6069 51.9137 13.6383 52.1953 13.6383V12.8383ZM51.898 13.1855V12.2656H51.098V13.1855H51.898ZM51.4243 12.6588C51.557 12.6836 51.8171 12.6949 51.9668 12.6949V11.8949C51.8236 11.8949 51.6266 11.8828 51.5718 11.8725L51.4243 12.6588ZM51.9668 12.6949C52.3989 12.6949 52.7628 12.5955 53.0428 12.3523C53.316 12.115 53.4533 11.7884 53.538 11.4562L52.7628 11.2586C52.6951 11.5241 52.6127 11.6662 52.5182 11.7483C52.4306 11.8244 52.2788 11.8949 51.9668 11.8949V12.6949ZM53.5356 11.4653L53.6176 11.1723L52.8472 10.9566L52.7652 11.2496L53.5356 11.4653ZM53.609 10.9297L51.3766 4.68948L50.6234 4.95895L52.8558 11.1992L53.609 10.9297ZM51 5.22422H52.3125V4.42422H51V5.22422ZM51.9307 4.94353L53.4834 9.91228L54.247 9.67366L52.6943 4.70491L51.9307 4.94353ZM53.8652 10.193H53.9062V9.39297H53.8652V10.193ZM54.2878 9.9131L55.8522 4.94435L55.0892 4.70409L53.5247 9.67284L54.2878 9.9131ZM55.4707 5.22422H56.7305V4.42422H55.4707V5.22422ZM59.291 9.01953V8.61953H58.891V9.01953H59.291ZM60.4629 9.01953L60.8626 9.00445L60.8481 8.61953H60.4629V9.01953ZM62.8887 3.00195V2.60195H62.4887V3.00195H62.8887ZM64.1016 3.00195H64.5016V2.60195H64.1016V3.00195ZM59.291 9.41953H60.4629V8.61953H59.291V9.41953ZM60.0632 9.03461C60.0781 9.4291 60.2168 9.8009 60.5053 10.0735C60.7939 10.3461 61.1905 10.4801 61.6465 10.4801V9.68008C61.3467 9.68008 61.1631 9.59436 61.0547 9.49194C60.9463 9.38953 60.8712 9.23105 60.8626 9.00445L60.0632 9.03461ZM61.6465 10.4801C62.1548 10.4801 62.5974 10.3236 62.8986 9.94679C63.1852 9.58833 63.2887 9.09667 63.2887 8.54492H62.4887C62.4887 9.01857 62.3959 9.29448 62.2737 9.44725C62.1663 9.58171 61.9878 9.68008 61.6465 9.68008V10.4801ZM63.2887 8.54492V3.00195H62.4887V8.54492H63.2887ZM62.8887 3.40195H64.1016V2.60195H62.8887V3.40195ZM63.7016 3.00195V8.55664H64.5016V3.00195H63.7016ZM63.7016 8.55664C63.7016 9.33266 63.496 9.87314 63.169 10.2179C62.8449 10.5596 62.3493 10.7641 61.6523 10.7641V11.5641C62.5081 11.5641 63.2371 11.3086 63.7494 10.7684C64.2589 10.2314 64.5016 9.46812 64.5016 8.55664H63.7016ZM61.6523 10.7641C60.9987 10.7641 60.5125 10.5606 60.1928 10.2582C59.874 9.95663 59.691 9.529 59.691 9.01953H58.891C58.891 9.72881 59.1504 10.3735 59.6431 10.8394C60.135 11.3047 60.8294 11.5641 61.6523 11.5641V10.7641ZM70.8105 8.1875V8.5875H71.2105V8.1875H70.8105ZM66.7734 8.1875V7.7875H66.3734V8.1875H66.7734ZM69.5918 9.25977V8.85977H69.2996L69.2107 9.13815L69.5918 9.25977ZM70.7344 9.25977L71.1263 9.33953L71.224 8.85977H70.7344V9.25977ZM66.7734 7.32031H66.3734V7.72031H66.7734V7.32031ZM69.6445 7.32031V7.72031H70.0445V7.32031H69.6445ZM68.2559 10.7055C67.5334 10.7055 66.9817 10.4623 66.6078 10.0539C66.2301 9.64138 65.9957 9.01841 65.9957 8.19336H65.1957C65.1957 9.16714 65.474 10.0002 66.0177 10.5941C66.5651 11.192 67.3436 11.5055 68.2559 11.5055V10.7055ZM65.9957 8.19336V7.54297H65.1957V8.19336H65.9957ZM65.9957 7.54297C65.9957 6.77215 66.2191 6.16993 66.5874 5.76501C66.9517 5.36457 67.492 5.11875 68.209 5.11875V4.31875C67.2971 4.31875 66.5308 4.63836 65.9956 5.22669C65.4645 5.81054 65.1957 6.62043 65.1957 7.54297H65.9957ZM68.209 5.11875C68.9257 5.11875 69.4616 5.36951 69.8229 5.77885C70.1895 6.19421 70.4105 6.81249 70.4105 7.60156H71.2105C71.2105 6.66798 70.9482 5.84485 70.4227 5.24947C69.8919 4.64807 69.1271 4.31875 68.209 4.31875V5.11875ZM70.4105 7.60156V8.1875H71.2105V7.60156H70.4105ZM70.8105 7.7875H66.7734V8.5875H70.8105V7.7875ZM66.3734 8.1875V8.31641H67.1734V8.1875H66.3734ZM66.3734 8.31641C66.3734 8.93014 66.5341 9.4854 66.866 9.8958C67.205 10.3151 67.6977 10.5504 68.2793 10.5504V9.75039C67.9292 9.75039 67.669 9.61654 67.488 9.39277C67.2999 9.16011 67.1734 8.79838 67.1734 8.31641H66.3734ZM68.2793 10.5504C68.6865 10.5504 69.0538 10.448 69.3529 10.24C69.6532 10.0312 69.8609 9.7323 69.9729 9.38138L69.2107 9.13815C69.1469 9.33801 69.0382 9.48443 68.8961 9.58321C68.7529 9.68286 68.5518 9.75039 68.2793 9.75039V10.5504ZM69.5918 9.65977H70.7344V8.85977H69.5918V9.65977ZM70.3424 9.18C70.2561 9.60408 70.046 9.98011 69.7146 10.2507C69.3848 10.5199 68.9094 10.7055 68.2559 10.7055V11.5055C69.0672 11.5055 69.7285 11.2721 70.2205 10.8704C70.7108 10.4701 71.0076 9.92326 71.1263 9.33953L70.3424 9.18ZM66.7734 7.72031H69.6445V6.92031H66.7734V7.72031ZM70.0445 7.32031V7.30273H69.2445V7.32031H70.0445ZM70.0445 7.30273C70.0445 6.22714 69.3571 5.26211 68.2148 5.26211V6.06211C68.7952 6.06211 69.2445 6.53848 69.2445 7.30273H70.0445ZM68.2148 5.26211C67.0551 5.26211 66.3734 6.23282 66.3734 7.30273H67.1734C67.1734 6.54452 67.6167 6.06211 68.2148 6.06211V5.26211ZM66.3734 7.30273V7.32031H67.1734V7.30273H66.3734ZM76.248 9.95703H76.648V9.55703H76.248V9.95703ZM76.207 9.95703V9.55703H75.9474L75.8417 9.79421L76.207 9.95703ZM76.2363 5.70312L75.8809 5.88668L75.9927 6.10313H76.2363V5.70312ZM76.2773 5.70312V6.10313H76.6773V5.70312H76.2773ZM76.2773 4.82422V4.42422H75.8773V4.82422H76.2773ZM77.4258 4.82422H77.8258V4.42422H77.4258V4.82422ZM72.1523 11.4805V11.0805H71.7018L71.7552 11.5279L72.1523 11.4805ZM73.3359 11.4805L73.7256 11.3902L73.6539 11.0805H73.3359V11.4805ZM74.7305 12.777C75.2709 12.777 75.7579 12.6168 76.1123 12.2791C76.4694 11.939 76.648 11.4604 76.648 10.9121H75.848C75.848 11.2838 75.7308 11.5376 75.5605 11.6999C75.3876 11.8646 75.1158 11.977 74.7305 11.977V12.777ZM76.648 10.9121V9.95703H75.848V10.9121H76.648ZM76.248 9.55703H76.207V10.357H76.248V9.55703ZM75.8417 9.79421C75.6774 10.1628 75.1717 10.5355 74.4492 10.5355V11.3355C75.4259 11.3355 76.2562 10.8294 76.5724 10.1199L75.8417 9.79421ZM74.4492 10.5355C73.8338 10.5355 73.3408 10.3205 72.9972 9.93112C72.649 9.53661 72.4176 8.92104 72.4176 8.05859H71.6176C71.6176 9.05943 71.8871 9.88233 72.3974 10.4605C72.9121 11.0437 73.635 11.3355 74.4492 11.3355V10.5355ZM72.4176 8.05859V7.58984H71.6176V8.05859H72.4176ZM72.4176 7.58984C72.4176 6.73971 72.6472 6.12841 72.9948 5.73509C73.3379 5.34679 73.8311 5.13047 74.4492 5.13047V4.33047C73.6318 4.33047 72.9091 4.62391 72.3953 5.20534C71.886 5.78175 71.6176 6.60014 71.6176 7.58984H72.4176ZM74.4492 5.13047C75.1593 5.13047 75.6812 5.50003 75.8809 5.88668L76.5917 5.51957C76.2406 4.83981 75.4266 4.33047 74.4492 4.33047V5.13047ZM76.2363 6.10313H76.2773V5.30312H76.2363V6.10313ZM76.6773 5.70312V4.82422H75.8773V5.70312H76.6773ZM76.2773 5.22422H77.4258V4.42422H76.2773V5.22422ZM77.0258 4.82422V10.9473H77.8258V4.82422H77.0258ZM77.0258 10.9473C77.0258 11.6344 76.7546 12.1071 76.3531 12.4182C75.939 12.7391 75.3569 12.9086 74.7246 12.9086V13.7086C75.4869 13.7086 76.2554 13.506 76.8431 13.0506C77.4437 12.5852 77.8258 11.8773 77.8258 10.9473H77.0258ZM74.7246 12.9086C73.9669 12.9086 73.4489 12.7248 73.1147 12.4653C72.7852 12.2094 72.5997 11.8538 72.5495 11.4331L71.7552 11.5279C71.828 12.1384 72.1084 12.6968 72.6241 13.0972C73.1351 13.494 73.8417 13.7086 74.7246 13.7086V12.9086ZM72.1523 11.8805H73.3359V11.0805H72.1523V11.8805ZM72.9463 11.5708C73.1092 12.274 73.8054 12.777 74.7305 12.777V11.977C74.0852 11.977 73.7853 11.6479 73.7256 11.3902L72.9463 11.5708ZM74.7539 5.31484C74.1657 5.31484 73.6587 5.53207 73.3086 5.96952C72.9684 6.39452 72.8129 6.98124 72.8129 7.66016H73.6129C73.6129 7.09103 73.7445 6.70509 73.9331 6.46944C74.1118 6.24625 74.3753 6.11484 74.7539 6.11484V5.31484ZM72.8129 7.66016V8.0293H73.6129V7.66016H72.8129ZM72.8129 8.0293C72.8129 8.69812 72.9691 9.28328 73.3075 9.7098C73.6555 10.1485 74.1615 10.3746 74.7539 10.3746V9.57461C74.3796 9.57461 74.115 9.44042 73.9342 9.21257C73.7438 8.97258 73.6129 8.58508 73.6129 8.0293H72.8129ZM74.7539 10.3746C75.3375 10.3746 75.8322 10.1425 76.1698 9.70253C76.4972 9.27604 76.648 8.69315 76.648 8.0293H75.848C75.848 8.58419 75.7206 8.97396 75.5352 9.21544C75.3602 9.44348 75.1078 9.57461 74.7539 9.57461V10.3746ZM76.648 8.0293V7.66016H75.848V8.0293H76.648ZM76.648 7.66016C76.648 6.99947 76.4873 6.4182 76.158 5.99234C75.8204 5.55593 75.3289 5.31484 74.7539 5.31484V6.11484C75.0871 6.11484 75.3427 6.24583 75.5251 6.48178C75.7158 6.72828 75.848 7.11967 75.848 7.66016H76.648ZM81.627 5.11875C82.4011 5.11875 82.9617 5.39064 83.3337 5.81513C83.7117 6.24657 83.9281 6.87452 83.9281 7.63672H84.7281C84.7281 6.729 84.4699 5.89796 83.9354 5.2879C83.3947 4.67088 82.6048 4.31875 81.627 4.31875V5.11875ZM83.9281 7.63672V8.1582H84.7281V7.63672H83.9281ZM83.9281 8.1582C83.9281 8.9468 83.7116 9.5813 83.3353 10.0127C82.9654 10.4367 82.406 10.7055 81.627 10.7055V11.5055C82.6057 11.5055 83.3969 11.159 83.9381 10.5386C84.473 9.92553 84.7281 9.08641 84.7281 8.1582H83.9281ZM81.627 10.7055C80.8444 10.7055 80.2801 10.4362 79.9066 10.0115C79.527 9.57984 79.3082 8.94561 79.3082 8.1582H78.5082C78.5082 9.0876 78.767 9.927 79.3058 10.5398C79.8508 11.1595 80.6458 11.5055 81.627 11.5055V10.7055ZM79.3082 8.1582V7.64258H78.5082V8.1582H79.3082ZM79.3082 7.64258C79.3082 6.88095 79.5258 6.25164 79.9066 5.81859C80.2814 5.39234 80.8467 5.11875 81.627 5.11875V4.31875C80.6436 4.31875 79.8494 4.67212 79.3058 5.2903C78.7682 5.90168 78.5082 6.73429 78.5082 7.64258H79.3082ZM81.6211 5.29141C81 5.29141 80.4968 5.54549 80.1618 5.99957C79.8385 6.43772 79.6977 7.02542 79.6977 7.66602H80.4977C80.4977 7.12888 80.6176 6.72927 80.8055 6.47455C80.9817 6.23576 81.2402 6.09141 81.6211 6.09141V5.29141ZM79.6977 7.66602V8.14062H80.4977V7.66602H79.6977ZM79.6977 8.14062C79.6977 8.77613 79.8388 9.36419 80.1608 9.80431C80.4943 10.2601 80.9969 10.5211 81.6211 10.5211V9.72109C81.2433 9.72109 80.9842 9.57485 80.8065 9.33192C80.6172 9.07331 80.4977 8.67113 80.4977 8.14062H79.6977ZM81.6211 10.5211C82.2469 10.5211 82.7491 10.2626 83.0814 9.8055C83.4014 9.36528 83.5387 8.77691 83.5387 8.14062H82.7387C82.7387 8.67621 82.6211 9.07808 82.4343 9.33512C82.2597 9.57533 82.0031 9.72109 81.6211 9.72109V10.5211ZM83.5387 8.14062V7.66602H82.7387V8.14062H83.5387ZM83.5387 7.66602C83.5387 7.02374 83.3998 6.43584 83.0779 5.99793C82.7438 5.54346 82.2414 5.29141 81.6211 5.29141V6.09141C82.0028 6.09141 82.2591 6.23486 82.4333 6.47179C82.6197 6.72529 82.7387 7.1247 82.7387 7.66602H83.5387ZM85.793 11H85.393V11.4H85.793V11ZM85.793 4.82422V4.42422H85.393V4.82422H85.793ZM86.9766 4.82422H87.3766V4.42422H86.9766V4.82422ZM86.9766 5.60938H86.5766V6.00938H86.9766V5.60938ZM87.0176 5.60938V6.00938H87.2792L87.384 5.7697L87.0176 5.60938ZM88.9277 4.75977H89.3277V4.41285L88.9843 4.36379L88.9277 4.75977ZM88.9277 5.82031L88.8453 6.21173L89.3277 6.31329V5.82031H88.9277ZM86.9883 11V11.4H87.3883V11H86.9883ZM86.193 11V4.82422H85.393V11H86.193ZM85.793 5.22422H86.9766V4.42422H85.793V5.22422ZM86.5766 4.82422V5.60938H87.3766V4.82422H86.5766ZM86.9766 6.00938H87.0176V5.20937H86.9766V6.00938ZM87.384 5.7697C87.4938 5.51874 87.8257 5.13047 88.5117 5.13047V4.33047C87.4633 4.33047 86.8694 4.95001 86.6511 5.44905L87.384 5.7697ZM88.5117 5.13047C88.6438 5.13047 88.7655 5.14064 88.8712 5.15575L88.9843 4.36379C88.8439 4.34373 88.6844 4.33047 88.5117 4.33047V5.13047ZM88.5277 4.75977V5.82031H89.3277V4.75977H88.5277ZM89.0101 5.42889C88.8545 5.39612 88.6011 5.38516 88.4004 5.38516V6.18516C88.5981 6.18516 88.7783 6.19763 88.8453 6.21173L89.0101 5.42889ZM88.4004 5.38516C87.7811 5.38516 87.2999 5.57967 86.9851 5.96371C86.6826 6.33269 86.5883 6.8119 86.5883 7.27344H87.3883C87.3883 6.90294 87.4668 6.63802 87.6038 6.47086C87.7285 6.31877 87.9533 6.18516 88.4004 6.18516V5.38516ZM86.5883 7.27344V11H87.3883V7.27344H86.5883ZM86.9883 10.6H85.793V11.4H86.9883V10.6ZM92.4609 11H92.0609V11.4H92.4609V11ZM92.4609 3.00195V2.60195H92.0609V3.00195H92.4609ZM96.5273 6.73438L96.416 6.35019L96.1273 6.43385V6.73438H96.5273ZM96.5273 6.78711H96.1273V7.14047L96.478 7.18405L96.5273 6.78711ZM93.6621 3.99219V3.59219H93.2621V3.99219H93.6621ZM93.6621 6.40625H93.2621V6.80625H93.6621V6.40625ZM93.6621 7.36133V6.96133H93.2621V7.36133H93.6621ZM93.6621 10.0098H93.2621V10.4098H93.6621V10.0098ZM92.8609 11V3.00195H92.0609V11H92.8609ZM92.4609 3.40195H95.5723V2.60195H92.4609V3.40195ZM95.5723 3.40195C96.1904 3.40195 96.6562 3.57134 96.9611 3.83436C97.2595 4.09175 97.4398 4.46908 97.4398 4.9707H98.2398C98.2398 4.25944 97.9749 3.65239 97.4837 3.22863C96.999 2.8105 96.3311 2.60195 95.5723 2.60195V3.40195ZM97.4398 4.9707C97.4398 5.3587 97.3354 5.65204 97.1695 5.86831C97.0027 6.08564 96.7527 6.2526 96.416 6.35019L96.6387 7.11856C97.1106 6.98178 97.5168 6.72979 97.8042 6.35532C98.0923 5.9798 98.2398 5.50849 98.2398 4.9707H97.4398ZM96.1273 6.73438V6.78711H96.9273V6.73438H96.1273ZM96.478 7.18405C96.9211 7.23913 97.266 7.40997 97.4989 7.66114C97.7295 7.90979 97.8793 8.26814 97.8793 8.75586H98.6793C98.6793 8.09514 98.4717 7.53357 98.0855 7.11718C97.7018 6.70331 97.1707 6.46399 96.5767 6.39016L96.478 7.18405ZM97.8793 8.75586C97.8793 9.34383 97.6544 9.78661 97.2692 10.0917C96.8733 10.4053 96.2728 10.6 95.4902 10.6V11.4C96.3952 11.4 97.1892 11.1757 97.766 10.7188C98.3534 10.2534 98.6793 9.57414 98.6793 8.75586H97.8793ZM95.4902 10.6H92.4609V11.4H95.4902V10.6ZM93.2621 3.99219V6.40625H94.0621V3.99219H93.2621ZM93.6621 6.80625H94.8281V6.00625H93.6621V6.80625ZM94.8281 6.80625C95.4809 6.80625 96.031 6.70328 96.4262 6.42971C96.8515 6.13522 97.0328 5.69046 97.0328 5.17578H96.2328C96.2328 5.48728 96.1358 5.65775 95.9708 5.77195C95.7756 5.90708 95.4234 6.00625 94.8281 6.00625V6.80625ZM97.0328 5.17578C97.0328 4.71589 96.8835 4.30377 96.5633 4.01015C96.2479 3.72085 95.8165 3.59219 95.3379 3.59219V4.39219C95.6796 4.39219 95.8956 4.48325 96.0226 4.59971C96.1449 4.71186 96.2328 4.89153 96.2328 5.17578H97.0328ZM95.3379 3.59219H93.6621V4.39219H95.3379V3.59219ZM93.2621 7.36133V10.0098H94.0621V7.36133H93.2621ZM93.6621 10.4098H94.9805V9.60977H93.6621V10.4098ZM94.9805 10.4098C95.7344 10.4098 96.3471 10.3111 96.7796 10.0383C97.2534 9.73938 97.4488 9.27465 97.4488 8.72656H96.6488C96.6488 9.06324 96.5454 9.24011 96.3528 9.36163C96.1187 9.50926 95.6973 9.60977 94.9805 9.60977V10.4098ZM97.4488 8.72656C97.4488 8.20072 97.268 7.73993 96.8917 7.4173C96.5242 7.10214 96.0199 6.96133 95.4492 6.96133V7.76133C95.8981 7.76133 96.1936 7.87247 96.371 8.02459C96.5397 8.16925 96.6488 8.39108 96.6488 8.72656H97.4488ZM95.4492 6.96133H93.6621V7.76133H95.4492V6.96133ZM103.049 10.2383V9.83828H102.822L102.705 10.0331L103.049 10.2383ZM101.455 7.4375V7.0375L101.453 7.0375L101.455 7.4375ZM103.043 7.4375V7.8375H103.443V7.4375H103.043ZM100.623 6.62891V7.02891H100.988L101.021 6.66549L100.623 6.62891ZM99.5098 6.62891L99.1104 6.60684L99.0871 7.02891H99.5098V6.62891ZM104.221 11V11.4H104.621V11H104.221ZM103.09 11H102.69V11.4H103.09V11ZM103.09 10.2383H103.49V9.83828H103.09V10.2383ZM103.043 8.25781H103.443V7.85781H103.043V8.25781ZM102.705 10.0331C102.497 10.3817 102.084 10.6996 101.297 10.6996V11.4996C102.338 11.4996 103.026 11.0558 103.392 10.4435L102.705 10.0331ZM101.297 10.6996C100.78 10.6996 100.379 10.5422 100.112 10.2961C99.8473 10.0532 99.6813 9.69517 99.6813 9.22461H98.8812C98.8812 9.89663 99.1253 10.4761 99.5701 10.885C100.011 11.2908 100.618 11.4996 101.297 11.4996V10.6996ZM99.6813 9.22461C99.6813 8.77834 99.832 8.45227 100.095 8.22994C100.367 7.99988 100.807 7.84018 101.457 7.8375L101.453 7.0375C100.685 7.04068 100.039 7.22961 99.5781 7.61918C99.1085 8.01648 98.8812 8.58103 98.8812 9.22461H99.6813ZM101.455 7.8375H103.043V7.0375H101.455V7.8375ZM103.443 7.4375V6.83398H102.643V7.4375H103.443ZM103.443 6.83398C103.443 6.38212 103.311 5.97516 103.006 5.68369C102.704 5.39484 102.29 5.27383 101.836 5.27383V6.07383C102.155 6.07383 102.345 6.15789 102.453 6.26162C102.559 6.36273 102.643 6.53585 102.643 6.83398H103.443ZM101.836 5.27383C101.4 5.27383 101.012 5.38674 100.719 5.6263C100.422 5.8694 100.26 6.21203 100.225 6.59233L101.021 6.66549C101.039 6.47156 101.114 6.33665 101.226 6.24577C101.341 6.15135 101.534 6.07383 101.836 6.07383V5.27383ZM100.623 6.22891H99.5098V7.02891H100.623V6.22891ZM99.9092 6.65097C99.9338 6.20559 100.093 5.83711 100.383 5.57736C100.676 5.31616 101.147 5.12461 101.871 5.12461V4.32461C101.007 4.32461 100.327 4.55493 99.8505 4.98075C99.3722 5.40801 99.1444 5.99167 99.1104 6.60684L99.9092 6.65097ZM101.871 5.12461C102.481 5.12461 102.97 5.28269 103.298 5.55128C103.616 5.81122 103.821 6.20441 103.821 6.76953H104.621C104.621 5.987 104.325 5.35772 103.805 4.93212C103.295 4.51516 102.609 4.32461 101.871 4.32461V5.12461ZM103.821 6.76953V11H104.621V6.76953H103.821ZM104.221 10.6H103.09V11.4H104.221V10.6ZM103.49 11V10.2383H102.69V11H103.49ZM103.09 9.83828H103.049V10.6383H103.09V9.83828ZM101.643 10.568C102.599 10.568 103.443 9.9478 103.443 8.95508H102.643C102.643 9.39204 102.28 9.76797 101.643 9.76797V10.568ZM103.443 8.95508V8.25781H102.643V8.95508H103.443ZM103.043 7.85781H101.619V8.65781H103.043V7.85781ZM101.619 7.85781C101.166 7.85781 100.774 7.96481 100.491 8.20851C100.198 8.45961 100.077 8.80743 100.077 9.16602H100.877C100.877 8.9914 100.931 8.88511 101.012 8.81541C101.102 8.73831 101.281 8.65781 101.619 8.65781V7.85781ZM100.077 9.16602C100.077 9.63059 100.275 9.99834 100.59 10.2394C100.892 10.4708 101.276 10.568 101.643 10.568V9.76797C101.406 9.76797 101.207 9.70398 101.077 9.60435C100.959 9.51435 100.877 9.38113 100.877 9.16602H100.077ZM107.074 8.80859L106.777 8.54101L106.674 8.6551V8.80859H107.074ZM107.074 11V11.4H107.474V11H107.074ZM105.891 11H105.491V11.4H105.891V11ZM105.891 2.58008V2.18008H105.491V2.58008H105.891ZM107.074 2.58008H107.474V2.18008H107.074V2.58008ZM107.074 7.49023H106.674V7.89023H107.074V7.49023ZM107.127 7.49023V7.89023H107.309L107.429 7.75246L107.127 7.49023ZM109.441 4.82422V4.42422H109.259L109.139 4.56199L109.441 4.82422ZM110.865 4.82422L111.164 5.08988L111.756 4.42422H110.865V4.82422ZM108.486 7.50195L108.187 7.23629L107.974 7.47633L108.162 7.73645L108.486 7.50195ZM111.018 11V11.4H111.801L111.342 10.7655L111.018 11ZM109.588 11L109.263 11.2327L109.382 11.4H109.588V11ZM107.602 8.22266L107.927 7.98997L107.637 7.58501L107.304 7.95507L107.602 8.22266ZM106.674 8.80859V11H107.474V8.80859H106.674ZM107.074 10.6H105.891V11.4H107.074V10.6ZM106.291 11V2.58008H105.491V11H106.291ZM105.891 2.98008H107.074V2.18008H105.891V2.98008ZM106.674 2.58008V7.49023H107.474V2.58008H106.674ZM107.074 7.89023H107.127V7.09023H107.074V7.89023ZM107.429 7.75246L109.743 5.08644L109.139 4.56199L106.825 7.22801L107.429 7.75246ZM109.441 5.22422H110.865V4.42422H109.441V5.22422ZM110.566 4.55855L108.187 7.23629L108.785 7.76762L111.164 5.08988L110.566 4.55855ZM108.162 7.73645L110.694 11.2345L111.342 10.7655L108.81 7.26746L108.162 7.73645ZM111.018 10.6H109.588V11.4H111.018V10.6ZM109.913 10.7673L107.927 7.98997L107.276 8.45535L109.263 11.2327L109.913 10.7673ZM107.304 7.95507L106.777 8.54101L107.372 9.07618L107.899 8.49024L107.304 7.95507ZM116.812 4.82422H117.213V4.42422H116.812V4.82422ZM116.812 11V11.4H117.213V11H116.812ZM115.646 11H115.246V11.4H115.646V11ZM115.646 10.1621H116.046V9.76211H115.646V10.1621ZM115.6 10.1621V9.76211H115.337L115.233 10.0029L115.6 10.1621ZM111.65 4.82422V4.42422H111.25V4.82422H111.65ZM112.834 4.82422H113.234V4.42422H112.834V4.82422ZM115.629 4.82422V4.42422H115.229V4.82422H115.629ZM116.412 4.82422V11H117.213V4.82422H116.412ZM116.812 10.6H115.646V11.4H116.812V10.6ZM116.046 11V10.1621H115.246V11H116.046ZM115.646 9.76211H115.6V10.5621H115.646V9.76211ZM115.233 10.0029C115.097 10.3148 114.682 10.6996 113.812 10.6996V11.4996C114.935 11.4996 115.68 10.9821 115.967 10.3213L115.233 10.0029ZM113.812 10.6996C113.252 10.6996 112.819 10.5389 112.53 10.2644C112.244 9.99338 112.05 9.56688 112.05 8.9375H111.25C111.25 9.73781 111.502 10.3924 111.979 10.845C112.453 11.2942 113.102 11.4996 113.812 11.4996V10.6996ZM112.05 8.9375V4.82422H111.25V8.9375H112.05ZM111.65 5.22422H112.834V4.42422H111.65V5.22422ZM112.434 4.82422V8.60938H113.234V4.82422H112.434ZM112.434 8.60938C112.434 9.24308 112.618 9.73016 112.982 10.0506C113.336 10.3626 113.793 10.4566 114.217 10.4566V9.65664C113.896 9.65664 113.662 9.58373 113.511 9.45038C113.369 9.3255 113.234 9.08896 113.234 8.60938H112.434ZM114.217 10.4566C114.712 10.4566 115.173 10.2978 115.512 9.96206C115.852 9.62499 116.029 9.14905 116.029 8.5918H115.229C115.229 8.9779 115.11 9.23438 114.949 9.39389C114.787 9.55471 114.542 9.65664 114.217 9.65664V10.4566ZM116.029 8.5918V4.82422H115.229V8.5918H116.029ZM115.629 5.22422H116.812V4.42422H115.629V5.22422ZM118.523 11H118.123V11.4H118.523V11ZM118.523 4.82422V4.42422H118.123V4.82422H118.523ZM119.689 4.82422H120.089V4.42422H119.689V4.82422ZM119.689 5.66797H119.289V6.06797H119.689V5.66797ZM119.73 5.66797V6.06797H119.97L120.083 5.857L119.73 5.66797ZM123.715 11V11.4H124.115V11H123.715ZM122.537 11H122.137V11.4H122.537V11ZM119.701 11V11.4H120.101V11H119.701ZM118.923 11V4.82422H118.123V11H118.923ZM118.523 5.22422H119.689V4.42422H118.523V5.22422ZM119.289 4.82422V5.66797H120.089V4.82422H119.289ZM119.689 6.06797H119.73V5.26797H119.689V6.06797ZM120.083 5.857C120.236 5.57136 120.675 5.12461 121.529 5.12461V4.32461C120.356 4.32461 119.658 4.95599 119.378 5.47894L120.083 5.857ZM121.529 5.12461C122.077 5.12461 122.514 5.29689 122.814 5.59678C123.112 5.89576 123.315 6.36305 123.315 7.0332H124.115C124.115 6.1975 123.858 5.51049 123.38 5.03163C122.903 4.5537 122.247 4.32461 121.529 4.32461V5.12461ZM123.315 7.0332V11H124.115V7.0332H123.315ZM123.715 10.6H122.537V11.4H123.715V10.6ZM122.937 11V7.25586H122.137V11H122.937ZM122.937 7.25586C122.937 6.67304 122.764 6.18757 122.419 5.84845C122.076 5.5112 121.612 5.36758 121.125 5.36758V6.16758C121.459 6.16758 121.701 6.26419 121.858 6.41912C122.014 6.5722 122.137 6.83087 122.137 7.25586H122.937ZM121.125 5.36758C120.536 5.36758 120.063 5.58158 119.743 5.9577C119.432 6.32415 119.301 6.80395 119.301 7.28516H120.101C120.101 6.94019 120.196 6.6612 120.353 6.4754C120.503 6.29928 120.742 6.16758 121.125 6.16758V5.36758ZM119.301 7.28516V11H120.101V7.28516H119.301ZM119.701 10.6H118.523V11.4H119.701V10.6ZM125.402 11H125.002V11.4H125.402V11ZM125.402 4.82422V4.42422H125.002V4.82422H125.402ZM126.586 4.82422H126.986V4.42422H126.586V4.82422ZM126.586 11V11.4H126.986V11H126.586ZM125.802 11V4.82422H125.002V11H125.802ZM125.402 5.22422H126.586V4.42422H125.402V5.22422ZM126.186 4.82422V11H126.986V4.82422H126.186ZM126.586 10.6H125.402V11.4H126.586V10.6ZM125.673 3.31836C125.673 3.15797 125.799 3.02109 125.994 3.02109V2.22109C125.392 2.22109 124.873 2.68187 124.873 3.31836H125.673ZM125.994 3.02109C126.189 3.02109 126.315 3.15797 126.315 3.31836H127.115C127.115 2.68187 126.596 2.22109 125.994 2.22109V3.02109ZM126.315 3.31836C126.315 3.47875 126.189 3.61562 125.994 3.61562V4.41563C126.596 4.41563 127.115 3.95485 127.115 3.31836H126.315ZM125.994 3.61562C125.799 3.61562 125.673 3.47875 125.673 3.31836H124.873C124.873 3.95485 125.392 4.41563 125.994 4.41563V3.61562ZM128.355 11H127.955V11.4H128.355V11ZM128.355 4.82422V4.42422H127.955V4.82422H128.355ZM129.521 4.82422H129.921V4.42422H129.521V4.82422ZM129.521 5.66797H129.121V6.06797H129.521V5.66797ZM129.562 5.66797V6.06797H129.802L129.915 5.857L129.562 5.66797ZM133.547 11V11.4H133.947V11H133.547ZM132.369 11H131.969V11.4H132.369V11ZM129.533 11V11.4H129.933V11H129.533ZM128.755 11V4.82422H127.955V11H128.755ZM128.355 5.22422H129.521V4.42422H128.355V5.22422ZM129.121 4.82422V5.66797H129.921V4.82422H129.121ZM129.521 6.06797H129.562V5.26797H129.521V6.06797ZM129.915 5.857C130.068 5.57136 130.507 5.12461 131.361 5.12461V4.32461C130.188 4.32461 129.49 4.95599 129.21 5.47894L129.915 5.857ZM131.361 5.12461C131.909 5.12461 132.346 5.29689 132.646 5.59678C132.944 5.89576 133.147 6.36305 133.147 7.0332H133.947C133.947 6.1975 133.69 5.51049 133.212 5.03163C132.735 4.5537 132.079 4.32461 131.361 4.32461V5.12461ZM133.147 7.0332V11H133.947V7.0332H133.147ZM133.547 10.6H132.369V11.4H133.547V10.6ZM132.769 11V7.25586H131.969V11H132.769ZM132.769 7.25586C132.769 6.67304 132.596 6.18757 132.251 5.84845C131.908 5.5112 131.444 5.36758 130.957 5.36758V6.16758C131.291 6.16758 131.533 6.26419 131.69 6.41912C131.846 6.5722 131.969 6.83087 131.969 7.25586H132.769ZM130.957 5.36758C130.368 5.36758 129.895 5.58158 129.575 5.9577C129.264 6.32415 129.133 6.80395 129.133 7.28516H129.933C129.933 6.94019 130.028 6.6612 130.185 6.4754C130.335 6.29928 130.574 6.16758 130.957 6.16758V5.36758ZM129.133 7.28516V11H129.933V7.28516H129.133ZM129.533 10.6H128.355V11.4H129.533V10.6Z" fill="black" mask="url(#path-1-outside-1_130_7)"/>
</svg>
