<svg width="24" height="24" viewBox="0 0 24 24" fill="none" xmlns="http://www.w3.org/2000/svg">
<path d="M22 8.16119V8.23419C22 9.09419 22 9.52519 21.793 9.87719C21.586 10.2292 21.209 10.4382 20.457 10.8572L19.664 11.2972C20.21 9.44919 20.393 7.46319 20.46 5.76519L20.47 5.54419L20.472 5.49219C21.123 5.71819 21.489 5.88719 21.717 6.20319C22 6.59619 22 7.11819 22 8.16119ZM2 8.16119V8.23419C2 9.09419 2 9.52519 2.207 9.87719C2.414 10.2292 2.791 10.4382 3.543 10.8572L4.337 11.2972C3.79 9.44919 3.607 7.46319 3.54 5.76519L3.53 5.54419L3.529 5.49219C2.877 5.71819 2.511 5.88719 2.283 6.20319C2 6.59619 2 7.11919 2 8.16119Z" fill="black"/>
<path fill-rule="evenodd" clip-rule="evenodd" d="M12 2.00024C13.784 2.00024 15.253 2.15724 16.377 2.34724C17.516 2.53924 18.085 2.63524 18.561 3.22124C19.037 3.80724 19.011 4.44024 18.961 5.70624C18.789 10.0552 17.851 15.4862 12.75 15.9662V19.5002H14.18C14.4111 19.5004 14.635 19.5805 14.8137 19.7271C14.9923 19.8737 15.1147 20.0776 15.16 20.3042L15.35 21.2502H18C18.1989 21.2502 18.3897 21.3293 18.5303 21.4699C18.671 21.6106 18.75 21.8013 18.75 22.0002C18.75 22.1991 18.671 22.3899 18.5303 22.5306C18.3897 22.6712 18.1989 22.7502 18 22.7502H6C5.80109 22.7502 5.61033 22.6712 5.46967 22.5306C5.32902 22.3899 5.25 22.1991 5.25 22.0002C5.25 21.8013 5.32902 21.6106 5.46967 21.4699C5.61033 21.3293 5.80109 21.2502 6 21.2502H8.65L8.84 20.3042C8.8853 20.0776 9.00768 19.8737 9.18634 19.7271C9.365 19.5805 9.58891 19.5004 9.82 19.5002H11.25V15.9662C6.15 15.4862 5.212 10.0542 5.04 5.70624C4.989 4.44024 4.964 3.80624 5.44 3.22124C5.915 2.63524 6.484 2.53924 7.623 2.34724C9.06982 2.11011 10.5339 1.99404 12 2.00024ZM12.952 6.19923L12.854 6.02323C12.474 5.34023 12.284 5.00024 12 5.00024C11.716 5.00024 11.526 5.34023 11.146 6.02323L11.048 6.19923C10.94 6.39323 10.886 6.48924 10.802 6.55324C10.717 6.61724 10.612 6.64124 10.402 6.68824L10.212 6.73223C9.474 6.89923 9.105 6.98224 9.017 7.26424C8.929 7.54724 9.181 7.84123 9.684 8.42923L9.814 8.58124C9.957 8.74824 10.029 8.83124 10.061 8.93524C10.093 9.03924 10.082 9.15024 10.061 9.37324L10.041 9.57624C9.965 10.3612 9.927 10.7542 10.156 10.9282C10.386 11.1022 10.732 10.9432 11.423 10.6252L11.601 10.5432C11.798 10.4532 11.896 10.4082 12 10.4082C12.104 10.4082 12.202 10.4532 12.399 10.5432L12.577 10.6252C13.268 10.9442 13.614 11.1022 13.844 10.9282C14.074 10.7542 14.035 10.3612 13.959 9.57624L13.939 9.37324C13.918 9.15024 13.907 9.03924 13.939 8.93524C13.971 8.83224 14.043 8.74824 14.186 8.58124L14.316 8.42923C14.819 7.84123 15.071 7.54724 14.983 7.26424C14.895 6.98224 14.526 6.89923 13.788 6.73223L13.598 6.68824C13.388 6.64124 13.283 6.61824 13.198 6.55324C13.114 6.48924 13.06 6.39323 12.952 6.19923Z" fill="black"/>
</svg>
