<svg width="449" height="57" viewBox="0 0 449 57" fill="none" xmlns="http://www.w3.org/2000/svg">
<g clip-path="url(#clip0_110_33)">
<path fill-rule="evenodd" clip-rule="evenodd" d="M36.132 54.973C39.9767 53.8143 43.084 52.2343 45.454 50.233L42.768 44.071C40.6087 45.8617 37.8437 47.2837 34.473 48.337C31.155 49.3377 27.6527 49.838 23.966 49.838C18.6467 49.838 14.644 48.9953 11.958 47.31C10.5061 46.399 9.44665 45.2957 8.77956 44H0.367084C0.776985 45.8361 1.55963 47.5188 2.71501 49.048C4.50568 51.418 7.16534 53.2877 10.694 54.657C14.2227 55.9737 18.515 56.632 23.571 56.632C28.1003 56.632 32.2873 56.079 36.132 54.973ZM0.291443 38H8.20122C8.67556 36.1619 9.76983 34.7096 11.484 33.643C13.854 32.1683 17.1193 31.431 21.28 31.431H35.816V24.637H21.596C17.962 24.637 15.1707 23.8997 13.222 22.425C11.7497 21.3108 10.8336 19.8358 10.4737 18H2.57998C2.8579 19.813 3.45591 21.4723 4.37401 22.978C5.69068 25.0847 7.50768 26.6647 9.82501 27.718C6.92834 28.7187 4.55834 30.3777 2.71501 32.695C1.48406 34.2518 0.676207 36.0201 0.291443 38ZM2.84549 12C3.24495 10.4819 3.91245 9.05888 4.84801 7.73099C6.53334 5.41366 9.06135 3.57032 12.432 2.20099C15.8027 0.778992 19.9107 0.0679932 24.756 0.0679932C28.1793 0.0679932 31.4973 0.43666 34.71 1.17399C37.9753 1.91133 40.793 2.96466 43.163 4.33399L40.872 10.654C36.132 8.12599 30.8653 6.86199 25.072 6.86199C20.2793 6.86199 16.619 7.73099 14.091 9.46899C12.9785 10.2107 12.1108 11.0543 11.4879 12H2.84549ZM101.272 56V0.69999H93.4508V32.063C93.4508 37.8563 92.0025 42.2277 89.1058 45.177C86.5419 47.7876 83.1733 49.2428 79 49.5426V56.4679C85.5735 55.7922 90.4695 53.0292 93.6878 48.179V56H101.272ZM73 56.5148C67.6782 56.0338 63.4088 54.0715 60.1918 50.628C56.5052 46.6253 54.6618 40.911 54.6618 33.485V0.69999H62.5618V33.248C62.5618 38.5673 63.8785 42.6227 66.5118 45.414C68.25 47.2565 70.4128 48.4909 73 49.1172V56.5148ZM142.901 39.015L154.83 56H163.441L150.327 37.435C154.224 36.0657 157.226 33.88 159.333 30.878C161.439 27.876 162.493 24.242 162.493 19.976C162.493 13.972 160.439 9.25832 156.331 5.83499C152.223 2.41166 146.587 0.69999 139.425 0.69999H117.858V56H125.758V39.173H131V32.458H125.758V7.57299H139.188C144.191 7.57299 148.009 8.65266 150.643 10.812C153.276 12.9187 154.593 15.9733 154.593 19.976C154.593 23.9787 153.276 27.0597 150.643 29.219C148.009 31.3783 144.191 32.458 139.188 32.458H137V39.173H139.425C140.267 39.173 141.426 39.1203 142.901 39.015ZM185.131 52.998C189.608 55.4207 194.637 56.632 200.22 56.632C205.75 56.632 210.753 55.4207 215.23 52.998C219.707 50.5227 223.209 47.152 225.737 42.886C227.679 39.5682 228.875 35.9395 229.325 32H221.35C220.943 34.5913 220.088 37.0087 218.785 39.252C216.942 42.4647 214.387 44.9927 211.122 46.836C207.909 48.6793 204.275 49.601 200.22 49.601C196.165 49.601 192.478 48.6793 189.16 46.836C185.895 44.9927 183.314 42.4647 181.418 39.252C180.152 37.0087 179.32 34.5913 178.924 32H170.96C171.413 35.896 172.608 39.4983 174.545 42.807C177.126 47.1257 180.654 50.5227 185.131 52.998ZM170.838 26C171.159 21.6023 172.395 17.5666 174.545 13.893C177.126 9.57432 180.654 6.20366 185.131 3.78099C189.608 1.30566 194.637 0.0679932 200.22 0.0679932C205.75 0.0679932 210.753 1.30566 215.23 3.78099C219.707 6.20366 223.209 9.57432 225.737 13.893C227.891 17.5273 229.127 21.563 229.446 26H221.516C221.213 22.9226 220.302 20.0983 218.785 17.527C216.942 14.2617 214.387 11.7073 211.122 9.86399C207.909 8.02066 204.275 7.09899 200.22 7.09899C196.165 7.09899 192.478 8.02066 189.16 9.86399C185.895 11.7073 183.314 14.2617 181.418 17.527C179.943 20.0983 179.058 22.9226 178.763 26H170.838Z" fill="black"/>
</g>
<path fill-rule="evenodd" clip-rule="evenodd" d="M326 40.753H338.385V56H346.285V24.953C346.285 16.9477 344.152 10.812 339.886 6.54599C336.334 2.95037 331.706 0.851565 326 0.249575V7.37507C329.325 7.92118 332.032 9.27749 334.119 11.444C336.963 14.3407 338.385 18.6067 338.385 24.242V33.88H326V40.753ZM319 7.35104C315.597 7.88067 312.815 9.24498 310.656 11.444C307.865 14.3407 306.469 18.6067 306.469 24.242V33.88H319V40.753H306.469V56H298.727V24.953C298.727 16.9477 300.86 10.812 305.126 6.54599C308.698 2.92975 313.323 0.827538 319 0.239364V7.35104ZM402 28.034V56L408.285 56V28.034H402ZM395 55.3808C392.287 56.2149 389.263 56.632 385.928 56.632C380.924 56.632 376.263 55.526 371.945 53.314C367.679 51.102 364.255 47.8893 361.675 43.676C359.147 39.41 357.883 34.3803 357.883 28.587C357.883 23.1097 359.147 18.2117 361.675 13.893C364.255 9.57432 367.784 6.20366 372.261 3.78099C376.79 1.30566 381.872 0.0679932 387.508 0.0679932C391.932 0.0679932 395.934 0.805326 399.516 2.27999C403.15 3.70199 406.231 5.80866 408.759 8.59999L403.861 13.498C399.437 9.23199 394.091 7.09899 387.824 7.09899C383.61 7.09899 379.818 8.02066 376.448 9.86399C373.13 11.7073 370.523 14.2617 368.627 17.527C366.731 20.7923 365.783 24.479 365.783 28.587C365.783 32.9583 366.731 36.7503 368.627 39.963C370.575 43.1757 373.13 45.6247 376.29 47.31C379.45 48.9427 382.873 49.759 386.56 49.759C389.14 49.759 391.642 49.3377 394.065 48.495C394.381 48.3807 394.693 48.2599 395 48.1328V55.3808ZM260.195 43V0.69999H252.295V43H260.195ZM252.295 50H290.136V56H252.295V50ZM418.512 6.99999V0.69999H447.742V6.99999L418.512 6.99999ZM437.077 14H429.177V49.127H418.512V56H447.742V49.127H437.077V14Z" fill="black"/>
<path d="M389 28H409V34V56H402V34H389V28Z" fill="black"/>
<defs>
<clipPath id="clip0_110_33">
<rect width="230" height="57" fill="white"/>
</clipPath>
</defs>
</svg>
