<svg width="230" height="57" viewBox="0 0 230 57" fill="none" xmlns="http://www.w3.org/2000/svg">
<g clip-path="url(#clip0_107_2)">
<path fill-rule="evenodd" clip-rule="evenodd" d="M36.132 54.973C39.9767 53.8143 43.084 52.2343 45.454 50.233L42.768 44.071C40.6087 45.8617 37.8437 47.2837 34.473 48.337C31.155 49.3377 27.6527 49.838 23.966 49.838C18.6467 49.838 14.644 48.9953 11.958 47.31C10.5061 46.399 9.44664 45.2957 8.77955 44H0.367073C0.776973 45.8361 1.55962 47.5188 2.715 49.048C4.50567 51.418 7.16533 53.2877 10.694 54.657C14.2227 55.9737 18.515 56.632 23.571 56.632C28.1003 56.632 32.2873 56.079 36.132 54.973ZM0.291431 38H8.20121C8.67555 36.1619 9.76981 34.7096 11.484 33.643C13.854 32.1683 17.1193 31.431 21.28 31.431H35.816V24.637H21.596C17.962 24.637 15.1707 23.8997 13.222 22.425C11.7497 21.3108 10.8335 19.8358 10.4736 18H2.57997C2.85789 19.813 3.4559 21.4723 4.374 22.978C5.69067 25.0847 7.50767 26.6647 9.825 27.718C6.92833 28.7187 4.55833 30.3777 2.715 32.695C1.48405 34.2518 0.676196 36.0201 0.291431 38ZM2.84547 12C3.24493 10.4819 3.91244 9.05888 4.848 7.73099C6.53333 5.41366 9.06133 3.57032 12.432 2.20099C15.8027 0.778992 19.9107 0.0679932 24.756 0.0679932C28.1793 0.0679932 31.4973 0.43666 34.71 1.17399C37.9753 1.91133 40.793 2.96466 43.163 4.33399L40.872 10.654C36.132 8.12599 30.8653 6.86199 25.072 6.86199C20.2793 6.86199 16.619 7.73099 14.091 9.46899C12.9785 10.2107 12.1108 11.0543 11.4879 12H2.84547ZM101.272 56V0.69999H93.4508V32.063C93.4508 37.8563 92.0025 42.2277 89.1058 45.177C86.5419 47.7876 83.1732 49.2428 79 49.5426V56.4679C85.5735 55.7922 90.4695 53.0292 93.6878 48.179V56H101.272ZM73 56.5148C67.6782 56.0338 63.4088 54.0715 60.1918 50.628C56.5052 46.6253 54.6618 40.911 54.6618 33.485V0.69999H62.5618V33.248C62.5618 38.5673 63.8785 42.6227 66.5118 45.414C68.25 47.2565 70.4128 48.4909 73 49.1172V56.5148ZM142.901 39.015L154.83 56H163.441L150.326 37.435C154.224 36.0657 157.226 33.88 159.333 30.878C161.439 27.876 162.492 24.242 162.492 19.976C162.492 13.972 160.438 9.25832 156.33 5.83499C152.222 2.41166 146.587 0.69999 139.425 0.69999H117.858V56H125.758V39.173H131V32.458H125.758V7.57299H139.188C144.191 7.57299 148.009 8.65266 150.643 10.812C153.276 12.9187 154.593 15.9733 154.593 19.976C154.593 23.9787 153.276 27.0597 150.643 29.219C148.009 31.3783 144.191 32.458 139.188 32.458H137V39.173H139.425C140.267 39.173 141.426 39.1203 142.901 39.015ZM185.131 52.998C189.608 55.4207 194.637 56.632 200.22 56.632C205.75 56.632 210.753 55.4207 215.23 52.998C219.707 50.5227 223.209 47.152 225.737 42.886C227.679 39.5682 228.875 35.9395 229.325 32H221.35C220.943 34.5913 220.088 37.0087 218.785 39.252C216.942 42.4647 214.387 44.9927 211.122 46.836C207.909 48.6793 204.275 49.601 200.22 49.601C196.165 49.601 192.478 48.6793 189.16 46.836C185.895 44.9927 183.314 42.4647 181.418 39.252C180.152 37.0087 179.32 34.5913 178.924 32H170.96C171.413 35.896 172.608 39.4983 174.545 42.807C177.126 47.1257 180.654 50.5227 185.131 52.998ZM170.838 26C171.159 21.6023 172.395 17.5666 174.545 13.893C177.126 9.57432 180.654 6.20366 185.131 3.78099C189.608 1.30566 194.637 0.0679932 200.22 0.0679932C205.75 0.0679932 210.753 1.30566 215.23 3.78099C219.707 6.20366 223.209 9.57432 225.737 13.893C227.891 17.5273 229.127 21.563 229.446 26H221.516C221.213 22.9226 220.302 20.0983 218.785 17.527C216.942 14.2617 214.387 11.7073 211.122 9.86399C207.909 8.02066 204.275 7.09899 200.22 7.09899C196.165 7.09899 192.478 8.02066 189.16 9.86399C185.895 11.7073 183.314 14.2617 181.418 17.527C179.943 20.0983 179.058 22.9226 178.763 26H170.838Z" fill="black"/>
</g>
<defs>
<clipPath id="clip0_107_2">
<rect width="230" height="57" fill="white"/>
</clipPath>
</defs>
</svg>
