<svg width="32" height="32" viewBox="0 0 32 32" fill="none" xmlns="http://www.w3.org/2000/svg">
<g clip-path="url(#clip0_127_49)">
<rect width="32" height="32" fill="white"/>
<path fill-rule="evenodd" clip-rule="evenodd" d="M23.32 29.4801C25.2667 28.8934 26.84 28.0934 28.04 27.0801L26.68 23.9601C25.5867 24.8667 24.1867 25.5867 22.48 26.1201C20.8 26.6267 19.0267 26.8801 17.16 26.8801C14.4667 26.8801 12.44 26.4534 11.08 25.6001C10.786 25.4156 10.5238 25.2156 10.2934 24.9999H5.54979C5.76503 25.5214 6.04844 26.0147 6.4 26.4801C7.30667 27.6801 8.65334 28.6267 10.44 29.3201C12.2267 29.9867 14.4 30.3201 16.96 30.3201C19.2533 30.3201 21.3733 30.0401 23.32 29.4801ZM5.15176 20.9999H9.15025C9.37373 20.0152 9.93698 19.2419 10.84 18.6801C12.04 17.9334 13.6933 17.5601 15.8 17.5601H23.16V14.1201H15.96C14.12 14.1201 12.7067 13.7467 11.72 13.0001C11.0399 12.4854 10.5942 11.8187 10.3829 10.9999H6.37252C6.52686 11.8247 6.81602 12.5847 7.24 13.2801C7.90667 14.3467 8.82667 15.1467 10 15.6801C8.53334 16.1867 7.33334 17.0267 6.4 18.2001C5.75325 19.018 5.33717 19.9513 5.15176 20.9999ZM6.70134 6.99994C6.89801 6.49766 7.15757 6.0177 7.48 5.56005C8.33334 4.38672 9.61334 3.45339 11.32 2.76005C13.0267 2.04005 15.1067 1.68005 17.56 1.68005C19.2933 1.68005 20.9733 1.86672 22.6 2.24005C24.2533 2.61339 25.68 3.14672 26.88 3.84005L25.72 7.04005C23.32 5.76005 20.6533 5.12005 17.72 5.12005C15.2933 5.12005 13.44 5.56005 12.16 6.44005C11.897 6.61542 11.6609 6.80205 11.4519 6.99994H6.70134Z" fill="black"/>
</g>
<defs>
<clipPath id="clip0_127_49">
<rect width="32" height="32" fill="white"/>
</clipPath>
</defs>
</svg>
