<svg width="24" height="24" viewBox="0 0 24 24" fill="none" xmlns="http://www.w3.org/2000/svg">
<path d="M21 11.2493V20.2493C21 20.4482 20.921 20.639 20.7803 20.7796C20.6397 20.9203 20.4489 20.9993 20.25 20.9993H15C14.8011 20.9993 14.6103 20.9203 14.4697 20.7796C14.329 20.639 14.25 20.4482 14.25 20.2493V15.3743C14.25 15.2748 14.2105 15.1795 14.1402 15.1091C14.0698 15.0388 13.9745 14.9993 13.875 14.9993H10.125C10.0255 14.9993 9.93016 15.0388 9.85983 15.1091C9.78951 15.1795 9.75 15.2748 9.75 15.3743V20.2493C9.75 20.4482 9.67098 20.639 9.53033 20.7796C9.38968 20.9203 9.19891 20.9993 9 20.9993H3.75C3.55109 20.9993 3.36032 20.9203 3.21967 20.7796C3.07902 20.639 3 20.4482 3 20.2493V11.2493C3.00018 10.8516 3.15834 10.4702 3.43969 10.189L10.9397 2.68899C11.221 2.4079 11.6023 2.25 12 2.25C12.3977 2.25 12.779 2.4079 13.0603 2.68899L20.5603 10.189C20.8417 10.4702 20.9998 10.8516 21 11.2493Z" fill="black"/>
</svg>
