<svg width="128" height="128" viewBox="0 0 128 128" fill="none" xmlns="http://www.w3.org/2000/svg">
<rect width="128" height="128" fill="url(#paint0_linear_859_150)"/>
<path d="M46.8 78.32C45.1467 78.32 43.6 77.9733 42.16 77.28C40.72 76.5867 39.5467 75.5867 38.64 74.28L40.96 71.56C41.7333 72.6267 42.6 73.4533 43.56 74.04C44.5467 74.6 45.6267 74.88 46.8 74.88C50 74.88 51.6 72.9867 51.6 69.2V53.48H41.48V50H55.56V69C55.56 72.12 54.8133 74.4533 53.32 76C51.8533 77.5467 49.68 78.32 46.8 78.32ZM63.7078 78V50H76.2678C79.4945 50 81.9745 50.6533 83.7078 51.96C85.4411 53.24 86.3078 55 86.3078 57.24C86.3078 58.76 85.9611 60.04 85.2678 61.08C84.6011 62.12 83.6945 62.92 82.5478 63.48C81.4011 64.04 80.1611 64.32 78.8278 64.32L79.5478 63.12C81.1478 63.12 82.5611 63.4 83.7878 63.96C85.0145 64.52 85.9878 65.3467 86.7078 66.44C87.4278 67.5067 87.7878 68.84 87.7878 70.44C87.7878 72.84 86.8811 74.7067 85.0678 76.04C83.2811 77.3467 80.6145 78 77.0678 78H63.7078ZM67.7078 74.76H76.9078C79.1211 74.76 80.8145 74.3867 81.9878 73.64C83.1611 72.8933 83.7478 71.72 83.7478 70.12C83.7478 68.4933 83.1611 67.3067 81.9878 66.56C80.8145 65.8133 79.1211 65.44 76.9078 65.44H67.3478V62.2H75.9078C77.9345 62.2 79.5078 61.8267 80.6278 61.08C81.7478 60.3333 82.3078 59.2133 82.3078 57.72C82.3078 56.2267 81.7478 55.1067 80.6278 54.36C79.5078 53.6133 77.9345 53.24 75.9078 53.24H67.7078V74.76Z" fill="black"/>
<defs>
<linearGradient id="paint0_linear_859_150" x1="64" y1="0" x2="64" y2="128" gradientUnits="userSpaceOnUse">
<stop stop-color="#BBD6FF"/>
<stop offset="1" stop-color="#A9A7FF"/>
</linearGradient>
</defs>
</svg>
