<svg width="39" height="57" viewBox="0 0 39 57" fill="none" xmlns="http://www.w3.org/2000/svg">
<g clip-path="url(#clip0_125_40)">
<path fill-rule="evenodd" clip-rule="evenodd" d="M74 40.753H86.3852V56H94.2852V24.953C94.2852 16.9477 92.1523 10.812 87.8862 6.54599C84.3345 2.95037 79.7057 0.851565 74 0.249575V7.37507C77.3251 7.92118 80.0315 9.27749 82.1193 11.444C84.9632 14.3407 86.3852 18.6067 86.3852 24.242V33.88H74V40.753ZM67 7.35104C63.5965 7.88067 60.8153 9.24498 58.6562 11.444C55.8649 14.3407 54.4692 18.6067 54.4692 24.242V33.88H67V40.753H54.4692V56H46.7272V24.953C46.7272 16.9477 48.8602 10.812 53.1262 6.54599C56.6984 2.92975 61.323 0.827538 67 0.239364V7.35104ZM150 28.034V56L156.285 56V28.034H150ZM143 55.3808C140.287 56.2149 137.263 56.632 133.928 56.632C128.924 56.632 124.263 55.526 119.945 53.314C115.679 51.102 112.255 47.8893 109.675 43.676C107.147 39.41 105.883 34.3803 105.883 28.587C105.883 23.1097 107.147 18.2117 109.675 13.893C112.255 9.57432 115.784 6.20366 120.261 3.78099C124.79 1.30566 129.872 0.0679932 135.508 0.0679932C139.932 0.0679932 143.934 0.805326 147.516 2.27999C151.15 3.70199 154.231 5.80866 156.759 8.59999L151.861 13.498C147.437 9.23199 142.091 7.09899 135.824 7.09899C131.61 7.09899 127.818 8.02066 124.448 9.86399C121.13 11.7073 118.523 14.2617 116.627 17.527C114.731 20.7923 113.783 24.479 113.783 28.587C113.783 32.9583 114.731 36.7503 116.627 39.963C118.575 43.1757 121.13 45.6247 124.29 47.31C127.45 48.9427 130.873 49.759 134.56 49.759C137.14 49.759 139.642 49.3377 142.065 48.495C142.381 48.3807 142.693 48.2599 143 48.1328V55.3808ZM8.195 43V0.69999H0.294998V43H8.195ZM0.294998 50H38.136V56H0.294998V50ZM166.512 6.99999V0.69999H195.742V6.99999L166.512 6.99999ZM185.077 14H177.177V49.127H166.512V56H195.742V49.127H185.077V14Z" fill="black"/>
</g>
<defs>
<clipPath id="clip0_125_40">
<rect width="39" height="57" fill="white"/>
</clipPath>
</defs>
</svg>
