<svg width="24" height="24" viewBox="0 0 24 24" fill="none" xmlns="http://www.w3.org/2000/svg">
<path d="M12.754 2.30469C12.754 2.10578 12.675 1.91501 12.5343 1.77436C12.3937 1.63371 12.2029 1.55469 12.004 1.55469C11.8051 1.55469 11.6143 1.63371 11.4737 1.77436C11.333 1.91501 11.254 2.10578 11.254 2.30469V3.78469C11.254 3.9836 11.333 4.17437 11.4737 4.31502C11.6143 4.45567 11.8051 4.53469 12.004 4.53469C12.2029 4.53469 12.3937 4.45567 12.5343 4.31502C12.675 4.17437 12.754 3.9836 12.754 3.78469V2.30469ZM17.865 10.2947C17.6572 9.48413 17.2788 8.72726 16.755 8.07469C16.2363 7.4172 15.5856 6.87558 14.845 6.48469C14.1065 6.09611 13.2968 5.86137 12.465 5.79469C11.631 5.73203 10.793 5.84443 10.005 6.12469C9.21259 6.401 8.48697 6.84046 7.87499 7.41469C7.26918 7.97885 6.7829 8.65897 6.44499 9.41469C6.11429 10.1817 5.94739 11.0094 5.95499 11.8447C5.93181 12.8094 6.13823 13.7659 6.55725 14.6352C6.97626 15.5045 7.59586 16.2618 8.36499 16.8447L8.71499 17.1747C9.01499 17.4847 9.01499 17.4847 9.00499 18.1747V18.4947C8.99236 18.716 9.02644 18.9374 9.10499 19.1447C9.17499 19.3667 9.29899 19.5697 9.46499 19.7347C9.54099 19.8127 9.62499 19.8827 9.71499 19.9447V20.9447C9.69853 21.126 9.71813 21.3089 9.77265 21.4826C9.82717 21.6564 9.91554 21.8176 10.0327 21.957C10.1498 22.0965 10.2934 22.2114 10.4551 22.295C10.6168 22.3787 10.7935 22.4296 10.975 22.4447H12.975C13.3423 22.4141 13.6824 22.2389 13.9206 21.9577C14.1587 21.6764 14.2754 21.312 14.245 20.9447V19.9447C14.3351 19.8832 14.4189 19.8128 14.495 19.7347C14.652 19.5687 14.772 19.3707 14.845 19.1547C14.9227 18.9437 14.9567 18.7192 14.945 18.4947V18.1247C14.945 17.5747 14.945 17.5747 15.255 17.2247L15.635 16.8747C16.9171 15.8776 17.7543 14.4151 17.965 12.8047C18.1128 11.9706 18.0787 11.1144 17.865 10.2947ZM12.795 20.9247H11.215V20.2947H12.795V20.9247ZM12.005 10.3647C11.6788 10.3647 11.3659 10.4943 11.1353 10.7249C10.9046 10.9556 10.775 11.2685 10.775 11.5947C10.775 11.8599 10.6696 12.1143 10.4821 12.3018C10.2946 12.4893 10.0402 12.5947 9.77499 12.5947C9.50977 12.5947 9.25542 12.4893 9.06788 12.3018C8.88035 12.1143 8.77499 11.8599 8.77499 11.5947C8.77234 11.1698 8.85407 10.7486 9.01545 10.3555C9.17683 9.9624 9.41465 9.60528 9.71512 9.30481C10.0156 9.00435 10.3727 8.76653 10.7658 8.60515C11.1589 8.44376 11.5801 8.36203 12.005 8.36469C12.2702 8.36469 12.5246 8.47004 12.7121 8.65758C12.8996 8.84512 13.005 9.09947 13.005 9.36469C13.005 9.6299 12.8996 9.88426 12.7121 10.0718C12.5246 10.2593 12.2702 10.3647 12.005 10.3647ZM21.165 12.8647H19.335C19.1361 12.8647 18.9453 12.7857 18.8047 12.645C18.664 12.5044 18.585 12.3136 18.585 12.1147C18.585 11.9158 18.664 11.725 18.8047 11.5844C18.9453 11.4437 19.1361 11.3647 19.335 11.3647H21.165C21.3639 11.3647 21.5547 11.4437 21.6953 11.5844C21.836 11.725 21.915 11.9158 21.915 12.1147C21.915 12.3136 21.836 12.5044 21.6953 12.645C21.5547 12.7857 21.3639 12.8647 21.165 12.8647ZM17.485 6.85469C17.3865 6.85515 17.2888 6.83593 17.1978 6.79815C17.1068 6.76038 17.0242 6.7048 16.955 6.63469C16.8145 6.49406 16.7357 6.30344 16.7357 6.10469C16.7357 5.90594 16.8145 5.71531 16.955 5.57469L18.255 4.27469C18.3972 4.14221 18.5852 4.07008 18.7795 4.07351C18.9738 4.07694 19.1592 4.15565 19.2966 4.29307C19.434 4.43048 19.5127 4.61586 19.5162 4.81016C19.5196 5.00447 19.4475 5.19251 19.315 5.33469L18.015 6.63469C17.9461 6.70526 17.8636 6.76114 17.7725 6.79895C17.6814 6.83676 17.5836 6.85572 17.485 6.85469ZM19.785 19.2947C19.587 19.2904 19.3978 19.2119 19.255 19.0747L17.955 17.7747C17.8671 17.6876 17.8022 17.5801 17.7659 17.4618C17.7297 17.3436 17.7232 17.2182 17.7472 17.0968C17.7711 16.9754 17.8247 16.8619 17.9032 16.7662C17.9817 16.6706 18.0826 16.5959 18.197 16.5487C18.3342 16.4908 18.4857 16.4757 18.6316 16.5054C18.7776 16.535 18.9112 16.6079 19.015 16.7147L20.315 18.0147C20.3857 18.0836 20.442 18.166 20.4804 18.2571C20.5188 18.3481 20.5386 18.4459 20.5386 18.5447C20.5386 18.6435 20.5188 18.7413 20.4804 18.8323C20.442 18.9233 20.3857 19.0057 20.315 19.0747C20.1745 19.2154 19.9838 19.2945 19.785 19.2947ZM6.53499 6.85469C6.33615 6.85451 6.14551 6.77538 6.00499 6.63469L4.70499 5.33469C4.56443 5.1928 4.48599 5.00088 4.48692 4.80115C4.48786 4.60143 4.5681 4.41025 4.70999 4.26969C4.85188 4.12912 5.0438 4.05068 5.24353 4.05162C5.44325 4.05256 5.63443 4.1328 5.77499 4.27469L7.06499 5.57469C7.16975 5.67957 7.24107 5.81315 7.26996 5.95855C7.29884 6.10395 7.28399 6.25465 7.22728 6.39161C7.17057 6.52857 7.07454 6.64566 6.95132 6.72808C6.82811 6.8105 6.68323 6.85456 6.53499 6.85469ZM4.24499 19.2947C4.1462 19.2969 4.04804 19.2785 3.95677 19.2406C3.86551 19.2027 3.78316 19.1462 3.71499 19.0747C3.57454 18.9341 3.49565 18.7434 3.49565 18.5447C3.49565 18.3459 3.57454 18.1553 3.71499 18.0147L5.01499 16.7147C5.15717 16.5822 5.34521 16.5101 5.53951 16.5135C5.73382 16.5169 5.9192 16.5957 6.05661 16.7331C6.19403 16.8705 6.27274 17.0559 6.27617 17.2502C6.27959 17.4445 6.20747 17.6325 6.07499 17.7747L4.78499 19.0847C4.63808 19.2205 4.44509 19.2956 4.24499 19.2947ZM4.66499 12.8647H2.83499C2.63608 12.8647 2.44531 12.7857 2.30466 12.645C2.16401 12.5044 2.08499 12.3136 2.08499 12.1147C2.08499 11.9158 2.16401 11.725 2.30466 11.5844C2.44531 11.4437 2.63608 11.3647 2.83499 11.3647H4.66499C4.8639 11.3647 5.05467 11.4437 5.19532 11.5844C5.33597 11.725 5.41499 11.9158 5.41499 12.1147C5.41499 12.3136 5.33597 12.5044 5.19532 12.645C5.05467 12.7857 4.8639 12.8647 4.66499 12.8647Z" fill="black"/>
</svg>
