<svg width="24" height="24" viewBox="0 0 24 24" fill="none" xmlns="http://www.w3.org/2000/svg">
<path d="M2.25798 5.31199C2.02717 5.44337 1.83538 5.63367 1.70221 5.86344C1.56904 6.09322 1.49926 6.35423 1.50001 6.61981V20.5304C1.49917 20.7896 1.5655 21.0446 1.69253 21.2705C1.81956 21.4964 2.00296 21.6855 2.22484 21.8195C2.44673 21.9534 2.69953 22.0276 2.95861 22.0347C3.21769 22.0419 3.4742 21.9818 3.70313 21.8603C3.72329 21.8495 3.74298 21.8382 3.7622 21.8256L7.70626 19.2451C7.75863 19.211 7.80164 19.1643 7.83136 19.1092C7.86107 19.0542 7.87656 18.9926 7.87641 18.9301V2.17652C7.87661 2.10821 7.85813 2.04115 7.82299 1.98257C7.78785 1.92399 7.73738 1.87612 7.67702 1.84413C7.61666 1.81214 7.54871 1.79725 7.4805 1.80106C7.4123 1.80486 7.34643 1.82723 7.29001 1.86574L2.25798 5.31199ZM9.95438 1.84184C9.89784 1.80508 9.83244 1.78426 9.76506 1.78155C9.69767 1.77885 9.63081 1.79436 9.5715 1.82646C9.5122 1.85856 9.46265 1.90606 9.42806 1.96395C9.39348 2.02185 9.37516 2.088 9.37501 2.15543V18.9161C9.37486 18.9786 9.39035 19.0402 9.42007 19.0952C9.44978 19.1502 9.49279 19.1969 9.54516 19.2311L14.0452 22.157C14.1017 22.1939 14.1672 22.2148 14.2347 22.2176C14.3022 22.2203 14.3692 22.2048 14.4286 22.1726C14.488 22.1405 14.5376 22.0928 14.5722 22.0348C14.6067 21.9768 14.625 21.9105 14.625 21.8429V5.09309C14.6252 5.03044 14.6097 4.96874 14.5799 4.91363C14.55 4.85852 14.5069 4.81176 14.4544 4.77762L9.95438 1.84184ZM21.7749 2.17746C21.5538 2.04217 21.3011 1.96717 21.0421 1.95994C20.783 1.9527 20.5266 2.01348 20.2983 2.13621C20.2781 2.14658 20.2585 2.15816 20.2397 2.1709L16.2952 4.74902C16.2428 4.78318 16.1998 4.82989 16.1701 4.88491C16.1403 4.93992 16.1249 5.0015 16.125 5.06402V21.82C16.1248 21.8883 16.1432 21.9555 16.1784 22.0142C16.2135 22.0728 16.2641 22.1207 16.3245 22.1527C16.3849 22.1847 16.453 22.1996 16.5213 22.1957C16.5895 22.1919 16.6555 22.1694 16.7119 22.1307L21.7308 18.6873C21.9644 18.557 22.1589 18.3666 22.2941 18.1358C22.4294 17.905 22.5005 17.6423 22.5 17.3748V3.49981C22.5031 3.23563 22.438 2.97513 22.3109 2.74348C22.1839 2.51183 21.9993 2.31688 21.7749 2.17746Z" fill="white"/>
</svg>
