<svg width="24" height="24" viewBox="0 0 24 24" fill="none" xmlns="http://www.w3.org/2000/svg">
<path fill-rule="evenodd" clip-rule="evenodd" d="M8.1358 2.82428C9.41756 2.27932 10.7998 1.99875 12.1967 2C13.5936 2.00126 14.9753 2.2843 16.2561 2.83155C17.5368 3.37881 18.6892 4.17859 19.6417 5.18123C20.5943 6.18388 21.3265 7.36797 21.7931 8.65998C22.1862 9.74284 22.0115 10.9828 21.3345 11.92C20.9954 12.385 20.5484 12.7644 20.0305 13.0266C19.5126 13.2889 18.9386 13.4267 18.3558 13.4285H15.6334C15.111 13.4267 14.6052 13.6088 14.2078 13.9416C13.8105 14.2745 13.5479 14.7361 13.4677 15.2427C13.3876 15.7493 13.4952 16.2673 13.771 16.7027C14.0468 17.1381 14.4726 17.462 14.971 17.6157C15.7717 17.9085 16.3322 18.6185 16.3861 19.4528C16.4386 19.9271 16.3203 20.4044 16.0518 20.8021C15.7832 21.1998 15.3813 21.4926 14.9157 21.63C14.0264 21.878 13.1061 22.0025 12.1816 22C10.3143 21.9988 8.48312 21.4943 6.88814 20.5414C5.29879 19.5817 4.00593 18.2152 3.14846 16.5888C2.29098 14.9623 1.90129 13.1374 2.02124 11.31C2.15877 9.48395 2.80065 7.72917 3.87793 6.23413C4.95522 4.73909 6.42721 3.56027 8.1358 2.82428ZM8.35418 12C8.64095 12 8.92492 11.9446 9.18987 11.8369C9.45482 11.7292 9.69556 11.5713 9.89834 11.3724C10.1011 11.1734 10.262 10.9371 10.3717 10.6772C10.4815 10.4172 10.5379 10.1385 10.5379 9.85712C10.5379 9.57572 10.4815 9.29707 10.3717 9.03709C10.262 8.77711 10.1011 8.54088 9.89834 8.3419C9.69556 8.14292 9.45482 7.98507 9.18987 7.87739C8.92492 7.7697 8.64095 7.71427 8.35418 7.71427C7.77501 7.71427 7.21956 7.94004 6.81002 8.3419C6.40048 8.74376 6.17041 9.2888 6.17041 9.85712C6.17041 10.4254 6.40048 10.9705 6.81002 11.3724C7.21956 11.7742 7.77501 12 8.35418 12ZM17.0893 7.71427C17.0893 8.28259 16.8592 8.82763 16.4496 9.2295C16.0401 9.63136 15.4847 9.85712 14.9055 9.85712C14.3263 9.85712 13.7709 9.63136 13.3613 9.2295C12.9518 8.82763 12.7217 8.28259 12.7217 7.71427C12.7217 7.14595 12.9518 6.60091 13.3613 6.19905C13.7709 5.79718 14.3263 5.57142 14.9055 5.57142C15.4847 5.57142 16.0401 5.79718 16.4496 6.19905C16.8592 6.60091 17.0893 7.14595 17.0893 7.71427ZM8.35418 17C8.74029 17 9.11059 16.8495 9.38362 16.5816C9.65664 16.3136 9.81002 15.9503 9.81002 15.5714C9.81002 15.1925 9.65664 14.8292 9.38362 14.5613C9.11059 14.2933 8.74029 14.1428 8.35418 14.1428C7.96806 14.1428 7.59776 14.2933 7.32474 14.5613C7.05171 14.8292 6.89833 15.1925 6.89833 15.5714C6.89833 15.9503 7.05171 16.3136 7.32474 16.5816C7.59776 16.8495 7.96806 17 8.35418 17Z" fill="black"/>
</svg>
