<svg width="256" height="256" viewBox="0 0 256 256" fill="none" xmlns="http://www.w3.org/2000/svg">
<rect width="256" height="256" fill="white"/>
<rect x="13" y="32" width="230" height="193" rx="8" fill="white"/>
<g clip-path="url(#clip0_127_50)">
<path fill-rule="evenodd" clip-rule="evenodd" d="M49.132 118.973C52.9767 117.814 56.084 116.234 58.454 114.233L55.768 108.071C53.6087 109.862 50.8437 111.284 47.473 112.337C44.155 113.338 40.6527 113.838 36.966 113.838C31.6467 113.838 27.644 112.995 24.958 111.31C23.5061 110.399 22.4466 109.296 21.7796 108H13.3671C13.777 109.836 14.5596 111.519 15.715 113.048C17.5057 115.418 20.1653 117.288 23.694 118.657C27.2227 119.974 31.515 120.632 36.571 120.632C41.1003 120.632 45.2873 120.079 49.132 118.973ZM13.2914 102H21.2012C21.6756 100.162 22.7698 98.7096 24.484 97.643C26.854 96.1683 30.1193 95.431 34.28 95.431H48.816V88.637H34.596C30.962 88.637 28.1707 87.8997 26.222 86.425C24.7497 85.3108 23.8335 83.8358 23.4736 82H15.58C15.8579 83.813 16.4559 85.4723 17.374 86.978C18.6907 89.0847 20.5077 90.6647 22.825 91.718C19.9283 92.7187 17.5583 94.3777 15.715 96.695C14.4841 98.2518 13.6762 100.02 13.2914 102ZM15.8455 76C16.2449 74.4819 16.9124 73.0589 17.848 71.731C19.5333 69.4137 22.0613 67.5703 25.432 66.201C28.8027 64.779 32.9107 64.068 37.756 64.068C41.1793 64.068 44.4973 64.4367 47.71 65.174C50.9753 65.9113 53.793 66.9647 56.163 68.334L53.872 74.654C49.132 72.126 43.8653 70.862 38.072 70.862C33.2793 70.862 29.619 71.731 27.091 73.469C25.9785 74.2107 25.1108 75.0543 24.4879 76H15.8455ZM114.272 120V64.7H106.451V96.063C106.451 101.856 105.002 106.228 102.106 109.177C99.5419 111.788 96.1732 113.243 92 113.543V120.468C98.5735 119.792 103.469 117.029 106.688 112.179V120H114.272ZM86 120.515C80.6782 120.034 76.4088 118.071 73.1918 114.628C69.5052 110.625 67.6618 104.911 67.6618 97.485V64.7H75.5618V97.248C75.5618 102.567 76.8785 106.623 79.5118 109.414C81.25 111.256 83.4128 112.491 86 113.117V120.515ZM155.901 103.015L167.83 120H176.441L163.326 101.435C167.224 100.066 170.226 97.88 172.333 94.878C174.439 91.876 175.492 88.242 175.492 83.976C175.492 77.972 173.438 73.2583 169.33 69.835C165.222 66.4117 159.587 64.7 152.425 64.7H130.858V120H138.758V103.173H144V96.458H138.758V71.573H152.188C157.191 71.573 161.009 72.6527 163.643 74.812C166.276 76.9187 167.593 79.9733 167.593 83.976C167.593 87.9787 166.276 91.0597 163.643 93.219C161.009 95.3783 157.191 96.458 152.188 96.458H150V103.173H152.425C153.267 103.173 154.426 103.12 155.901 103.015ZM198.131 116.998C202.608 119.421 207.637 120.632 213.22 120.632C218.75 120.632 223.753 119.421 228.23 116.998C232.707 114.523 236.209 111.152 238.737 106.886C240.679 103.568 241.875 99.9395 242.325 96H234.35C233.943 98.5913 233.088 101.009 231.785 103.252C229.942 106.465 227.387 108.993 224.122 110.836C220.909 112.679 217.275 113.601 213.22 113.601C209.165 113.601 205.478 112.679 202.16 110.836C198.895 108.993 196.314 106.465 194.418 103.252C193.152 101.009 192.32 98.5913 191.924 96H183.96C184.413 99.896 185.608 103.498 187.545 106.807C190.126 111.126 193.654 114.523 198.131 116.998ZM183.838 90C184.159 85.6023 185.395 81.5666 187.545 77.893C190.126 73.5743 193.654 70.2037 198.131 67.781C202.608 65.3057 207.637 64.068 213.22 64.068C218.75 64.068 223.753 65.3057 228.23 67.781C232.707 70.2037 236.209 73.5743 238.737 77.893C240.891 81.5273 242.127 85.563 242.446 90H234.516C234.213 86.9226 233.302 84.0983 231.785 81.527C229.942 78.2617 227.387 75.7073 224.122 73.864C220.909 72.0207 217.275 71.099 213.22 71.099C209.165 71.099 205.478 72.0207 202.16 73.864C198.895 75.7073 196.314 78.2617 194.418 81.527C192.943 84.0983 192.058 86.9226 191.763 90H183.838Z" fill="black"/>
</g>
<g clip-path="url(#clip1_127_50)">
<path fill-rule="evenodd" clip-rule="evenodd" d="M103.5 176.753H115.885V192H123.785V160.953C123.785 152.948 121.652 146.812 117.386 142.546C113.834 138.95 109.206 136.852 103.5 136.25V143.375C106.825 143.921 109.532 145.277 111.619 147.444C114.463 150.341 115.885 154.607 115.885 160.242V169.88H103.5V176.753ZM96.5 143.351C93.0965 143.881 90.3153 145.245 88.1563 147.444C85.3649 150.341 83.9693 154.607 83.9693 160.242V169.88H96.5V176.753H83.9693V192H76.2273V160.953C76.2273 152.948 78.3603 146.812 82.6262 142.546C86.1984 138.93 90.823 136.828 96.5 136.239V143.351ZM179.5 164.034V192L185.785 192V164.034H179.5ZM172.5 191.381C169.787 192.215 166.763 192.632 163.428 192.632C158.424 192.632 153.763 191.526 149.445 189.314C145.179 187.102 141.755 183.889 139.175 179.676C136.647 175.41 135.383 170.38 135.383 164.587C135.383 159.11 136.647 154.212 139.175 149.893C141.755 145.574 145.284 142.204 149.761 139.781C154.29 137.306 159.372 136.068 165.008 136.068C169.432 136.068 173.434 136.805 177.016 138.28C180.65 139.702 183.731 141.809 186.259 144.6L181.361 149.498C176.937 145.232 171.591 143.099 165.324 143.099C161.11 143.099 157.318 144.021 153.948 145.864C150.63 147.707 148.023 150.262 146.127 153.527C144.231 156.792 143.283 160.479 143.283 164.587C143.283 168.958 144.231 172.75 146.127 175.963C148.075 179.176 150.63 181.625 153.79 183.31C156.95 184.943 160.373 185.759 164.06 185.759C166.64 185.759 169.142 185.338 171.565 184.495C171.881 184.381 172.193 184.26 172.5 184.133V191.381ZM37.695 179V136.7H29.795V179H37.695ZM29.795 186H67.636V192H29.795V186ZM196.012 143V136.7H225.242V143L196.012 143ZM214.577 150H206.677V185.127H196.012V192H225.242V185.127H214.577V150Z" fill="black"/>
<path d="M166.5 164H186.5V170V192H179.5V170H166.5V164Z" fill="black"/>
</g>
<defs>
<clipPath id="clip0_127_50">
<rect width="230" height="57" fill="white" transform="translate(13 64)"/>
</clipPath>
<clipPath id="clip1_127_50">
<rect width="197" height="57" fill="white" transform="translate(29.5 136)"/>
</clipPath>
</defs>
</svg>
