<svg width="24" height="24" viewBox="0 0 24 24" fill="none" xmlns="http://www.w3.org/2000/svg">
<path d="M21.8332 6.26165C21.7457 5.90892 21.3043 5.78939 21.0473 6.04642L18.1426 8.9511L15.4911 8.5093L15.0493 5.85775L17.954 2.95307C18.2126 2.69447 18.0879 2.25385 17.7329 2.16557C15.8821 1.70697 13.8442 2.20111 12.3977 3.6472C10.8493 5.19564 10.4231 7.44017 11.0677 9.39719L2.73213 17.7327C1.75596 18.7089 1.75596 20.2917 2.73213 21.2679C3.7083 22.244 5.2911 22.244 6.26727 21.2679L14.5958 12.9394C16.5536 13.5921 18.7938 13.1612 20.3524 11.6027C21.8004 10.1546 22.2938 8.1136 21.8332 6.26165ZM4.50009 20.4374C3.98251 20.4374 3.56259 20.0175 3.56259 19.4999C3.56259 18.9819 3.98251 18.5624 4.50009 18.5624C5.01767 18.5624 5.43759 18.9819 5.43759 19.4999C5.43759 20.0175 5.01767 20.4374 4.50009 20.4374Z" fill="black"/>
</svg>
